<svg width="1285" height="1286" viewBox="0 0 1285 1286" fill="none" xmlns="http://www.w3.org/2000/svg">
<path d="M579.515 504.801C581.514 502.984 583.496 501.228 585.462 499.53L586.116 500.287C587.106 499.433 588.092 498.593 589.074 497.768L588.431 497.003C590.513 495.253 592.577 493.571 594.623 491.955L595.243 492.74C596.264 491.933 597.28 491.144 598.291 490.37L597.684 489.576C599.85 487.919 601.997 486.338 604.123 484.829L604.701 485.645C605.766 484.889 606.826 484.152 607.88 483.434L607.317 482.607C609.567 481.074 611.793 479.624 613.998 478.255L614.525 479.105C615.647 478.408 616.763 477.733 617.873 477.079L617.365 476.218C619.694 474.845 621.997 473.565 624.275 472.374L624.739 473.26C625.928 472.639 627.11 472.042 628.285 471.47L627.847 470.571C630.274 469.389 632.673 468.311 635.044 467.333L635.426 468.257C636.66 467.748 637.886 467.267 639.105 466.812L638.756 465.875C641.292 464.93 643.796 464.101 646.269 463.386L646.547 464.347C647.801 463.984 649.047 463.651 650.285 463.347L650.046 462.376C652.672 461.731 655.262 461.215 657.817 460.825L657.968 461.814C659.28 461.613 660.583 461.447 661.877 461.313L661.774 460.318C664.445 460.042 667.078 459.905 669.674 459.903L669.675 460.903C670.979 460.901 672.273 460.934 673.558 461.001L673.609 460.002C676.274 460.141 678.899 460.423 681.486 460.842L681.326 461.829C682.615 462.039 683.895 462.283 685.166 462.561L685.38 461.584C687.96 462.149 690.502 462.853 693.007 463.69L692.69 464.638C693.922 465.05 695.145 465.495 696.36 465.971L696.725 465.04C699.165 465.998 701.569 467.083 703.939 468.291L703.485 469.182C704.645 469.773 705.796 470.393 706.94 471.043L707.434 470.174C709.704 471.463 711.942 472.866 714.15 474.377L713.585 475.202C714.651 475.931 715.71 476.686 716.762 477.466L717.358 476.663C719.448 478.212 721.511 479.859 723.548 481.599L722.898 482.359C723.892 483.209 724.881 484.081 725.863 484.975L726.537 484.236C728.459 485.985 730.358 487.818 732.234 489.731L731.521 490.431C732.427 491.355 733.329 492.298 734.225 493.259L734.957 492.577C736.732 494.48 738.487 496.454 740.223 498.497L739.461 499.145C740.306 500.139 741.147 501.149 741.984 502.175L742.759 501.544C744.402 503.561 746.029 505.638 747.639 507.774L746.84 508.376C747.631 509.425 748.418 510.488 749.201 511.565L750.01 510.977C751.543 513.085 753.06 515.244 754.564 517.454L753.738 518.016C754.47 519.092 755.199 520.18 755.924 521.279L756.759 520.728C758.199 522.91 759.627 525.137 761.042 527.408L760.194 527.937C760.883 529.043 761.57 530.159 762.253 531.285L763.108 530.766C764.465 533.001 765.811 535.275 767.146 537.587L766.28 538.087C766.936 539.222 767.589 540.366 768.24 541.519L769.111 541.028C770.396 543.304 771.671 545.615 772.937 547.958L772.057 548.433C772.683 549.592 773.307 550.758 773.929 551.932L774.812 551.464C776.036 553.774 777.25 556.114 778.457 558.482L777.566 558.936C778.166 560.112 778.764 561.296 779.36 562.486L780.254 562.039C781.424 564.376 782.587 566.74 783.743 569.128L782.843 569.563C783.418 570.751 783.991 571.944 784.563 573.143L785.465 572.713C786.592 575.077 787.712 577.464 788.827 579.872L787.919 580.292C788.472 581.487 789.024 582.687 789.574 583.892L790.483 583.477C791.573 585.864 792.657 588.271 793.736 590.696L792.822 591.103C793.091 591.708 793.36 592.315 793.629 592.923L793.644 592.957L793.661 592.989C793.982 593.59 794.3 594.188 794.616 594.783L795.499 594.315C796.763 596.699 797.982 599.038 799.159 601.332L798.269 601.788C798.856 602.933 799.433 604.067 799.998 605.191L800.892 604.741C802.113 607.164 803.284 609.538 804.407 611.861L803.506 612.296C804.075 613.473 804.631 614.637 805.175 615.789L806.079 615.362C807.228 617.797 808.323 620.176 809.363 622.501L808.45 622.91C808.989 624.115 809.514 625.306 810.024 626.483L810.942 626.085C812.012 628.553 813.02 630.959 813.966 633.305L813.038 633.679C813.534 634.908 814.012 636.12 814.473 637.315L815.406 636.955C816.381 639.478 817.28 641.929 818.107 644.311L817.163 644.639C817.594 645.882 818.006 647.105 818.398 648.31L819.349 648C820.193 650.594 820.947 653.101 821.614 655.528L820.649 655.793C820.991 657.036 821.309 658.257 821.605 659.457L822.576 659.218C823.232 661.883 823.778 664.445 824.216 666.912L823.232 667.088C823.467 668.411 823.671 669.706 823.845 670.973L824.836 670.837C825.208 673.554 825.443 676.15 825.545 678.632L824.546 678.674C824.6 679.969 824.617 681.232 824.599 682.464L825.599 682.478C825.558 685.234 825.343 687.843 824.964 690.322L823.975 690.171C823.778 691.458 823.536 692.708 823.251 693.924L824.224 694.152C823.607 696.781 822.79 699.254 821.787 701.595L820.868 701.201C820.363 702.381 819.809 703.526 819.209 704.639L820.089 705.114C818.846 707.419 817.409 709.591 815.793 711.653L815.005 711.037C814.22 712.039 813.391 713.016 812.52 713.971L813.258 714.645C811.533 716.535 809.65 718.335 807.622 720.066L806.973 719.305C806.003 720.133 804.998 720.946 803.961 721.746L804.572 722.538C802.559 724.09 800.427 725.593 798.187 727.062L797.639 726.226C796.564 726.931 795.464 727.629 794.339 728.322L794.863 729.173C792.697 730.507 790.443 731.82 788.112 733.126L787.623 732.254C786.496 732.885 785.35 733.515 784.187 734.145L784.663 735.024C782.411 736.243 780.095 737.461 777.722 738.69L777.262 737.802C776.124 738.391 774.973 738.983 773.809 739.579L774.264 740.47C772.494 741.376 770.695 742.291 768.87 743.219C768.342 743.488 767.811 743.758 767.278 744.029L766.824 743.138C765.664 743.728 764.494 744.324 763.315 744.927L763.77 745.817C761.481 746.988 759.157 748.184 756.804 749.413L756.341 748.527C755.195 749.126 754.042 749.733 752.882 750.349L753.351 751.232C751.077 752.441 748.778 753.683 746.46 754.967L745.975 754.092C744.83 754.727 743.679 755.372 742.524 756.027L743.018 756.897C740.776 758.17 738.518 759.484 736.249 760.845L735.734 759.988C734.624 760.654 733.511 761.331 732.395 762.021L732.921 762.871C730.725 764.229 728.52 765.633 726.309 767.09L725.759 766.255C724.671 766.972 723.581 767.701 722.49 768.445L723.053 769.271C720.922 770.723 718.788 772.226 716.653 773.785L716.064 772.978C715.002 773.753 713.941 774.542 712.879 775.346L713.483 776.143C711.431 777.697 709.38 779.305 707.334 780.971L706.703 780.196C706.189 780.614 705.676 781.036 705.163 781.461C704.639 781.896 704.116 782.327 703.595 782.756L704.23 783.528C702.141 785.245 700.076 786.907 698.035 788.517L697.416 787.732C696.398 788.535 695.386 789.325 694.38 790.101L694.992 790.893C692.829 792.562 690.694 794.172 688.586 795.722L687.994 794.916C686.942 795.69 685.898 796.448 684.86 797.192L685.442 798.005C683.228 799.591 681.044 801.111 678.89 802.567L678.33 801.738C677.246 802.471 676.169 803.187 675.1 803.887L675.647 804.723C673.368 806.215 671.122 807.633 668.908 808.979L668.388 808.125C667.273 808.803 666.166 809.462 665.068 810.104L665.572 810.968C663.215 812.344 660.895 813.638 658.611 814.851L658.142 813.968C656.984 814.583 655.836 815.177 654.697 815.751L655.147 816.644C652.717 817.867 650.33 818.997 647.983 820.037L647.578 819.122C646.351 819.666 645.136 820.184 643.933 820.678L644.312 821.603C641.802 822.632 639.34 823.556 636.924 824.377L636.602 823.43C635.338 823.859 634.088 824.26 632.85 824.634L633.139 825.591C630.534 826.377 627.984 827.041 625.487 827.588L625.273 826.611C623.987 826.892 622.717 827.143 621.46 827.362L621.632 828.347C618.954 828.815 616.337 829.145 613.779 829.344L613.701 828.347C612.385 828.449 611.084 828.516 609.8 828.549L609.825 829.548C607.13 829.617 604.501 829.535 601.936 829.312L602.023 828.316C600.71 828.202 599.415 828.05 598.136 827.862L597.99 828.851C595.346 828.462 592.77 827.918 590.259 827.229L590.523 826.265C589.267 825.92 588.026 825.539 586.802 825.122L586.479 826.068C583.976 825.215 581.538 824.215 579.161 823.078L579.593 822.176C578.422 821.615 577.266 821.021 576.125 820.395L575.643 821.271C573.347 820.01 571.108 818.62 568.922 817.108L569.491 816.286C568.422 815.547 567.366 814.778 566.321 813.981L565.715 814.776C563.644 813.197 561.621 811.507 559.642 809.718L560.313 808.976C559.349 808.104 558.395 807.208 557.45 806.288L556.753 807.004C554.886 805.187 553.059 803.279 551.267 801.29L552.01 800.621C551.143 799.659 550.285 798.678 549.434 797.678L548.673 798.326C546.985 796.343 545.328 794.287 543.699 792.167L544.492 791.558C543.698 790.523 542.909 789.473 542.127 788.408L541.321 789C539.779 786.899 538.26 784.741 536.763 782.532L537.591 781.971C536.857 780.888 536.129 779.792 535.405 778.685L534.568 779.232C533.138 777.046 531.727 774.814 530.333 772.543L531.185 772.02C530.501 770.907 529.821 769.784 529.145 768.652L528.286 769.165C526.944 766.918 525.616 764.637 524.3 762.325L525.169 761.83C524.519 760.689 523.871 759.54 523.227 758.384L522.353 758.871C521.076 756.582 519.809 754.266 518.55 751.93L519.431 751.455C518.808 750.3 518.188 749.14 517.569 747.974L516.686 748.443C515.454 746.123 514.228 743.785 513.008 741.433L513.895 740.972C513.289 739.804 512.684 738.632 512.079 737.458L511.19 737.915C509.986 735.576 508.786 733.225 507.587 730.867L508.479 730.414C508.179 729.825 507.88 729.236 507.581 728.647C507.267 728.029 506.96 727.412 506.66 726.796L505.761 727.235C504.537 724.724 503.423 722.234 502.417 719.763L503.343 719.385C502.827 718.12 502.34 716.861 501.881 715.606L500.942 715.95C499.985 713.337 499.146 710.745 498.421 708.171L499.383 707.9C499.012 706.582 498.67 705.269 498.358 703.962L497.385 704.194C496.741 701.499 496.219 698.823 495.814 696.164L496.803 696.014C496.598 694.673 496.423 693.336 496.278 692.004L495.284 692.113C494.984 689.373 494.806 686.65 494.742 683.943L495.742 683.919C495.71 682.567 495.707 681.219 495.732 679.874L494.732 679.856C494.783 677.118 494.948 674.394 495.22 671.682L496.215 671.781C496.35 670.436 496.511 669.094 496.699 667.754L495.708 667.616C496.085 664.919 496.565 662.232 497.14 659.553L498.118 659.763C498.401 658.445 498.707 657.128 499.036 655.813L498.066 655.57C498.724 652.938 499.471 650.312 500.3 647.69L501.254 647.992C501.66 646.706 502.086 645.421 502.532 644.136L501.587 643.809C502.474 641.252 503.435 638.697 504.465 636.143L505.393 636.517C505.898 635.262 506.421 634.007 506.959 632.751L506.04 632.357C507.105 629.873 508.232 627.387 509.413 624.899L510.316 625.328C510.897 624.105 511.492 622.88 512.099 621.655L511.203 621.211C512.404 618.786 513.655 616.357 514.95 613.923L515.833 614.392C516.466 613.2 517.111 612.006 517.766 610.811L516.888 610.33C518.188 607.957 519.526 605.577 520.898 603.188L521.765 603.687C522.442 602.508 523.127 601.327 523.821 600.143L522.958 599.638C524.326 597.302 525.724 594.957 527.146 592.602L528.002 593.119C528.703 591.959 529.41 590.795 530.123 589.629L529.269 589.108C530.683 586.795 532.117 584.471 533.569 582.136L534.418 582.664C535.136 581.508 535.859 580.349 536.585 579.187L535.737 578.657C537.174 576.357 538.625 574.044 540.086 571.718L540.933 572.249C541.248 571.748 541.564 571.246 541.88 570.743C542.289 570.091 542.699 569.438 543.11 568.784L542.263 568.252C543.706 565.953 545.157 563.64 546.612 561.312L547.46 561.842C548.182 560.685 548.905 559.525 549.629 558.361L548.78 557.833C550.213 555.526 551.649 553.203 553.082 550.863L553.935 551.385C554.646 550.224 555.356 549.059 556.065 547.889L555.21 547.37C556.62 545.047 558.025 542.706 559.423 540.347L560.283 540.856C560.979 539.68 561.674 538.5 562.366 537.314L561.503 536.81C562.874 534.462 564.236 532.095 565.585 529.709L566.456 530.201C567.126 529.015 567.793 527.825 568.457 526.629L567.582 526.144C568.902 523.765 570.207 521.367 571.495 518.948L572.378 519.418C573.02 518.212 573.658 517 574.291 515.782L573.404 515.321C574.658 512.908 575.894 510.475 577.108 508.019L578.004 508.461C578.28 507.903 578.555 507.344 578.828 506.783C579.282 506.366 579.735 505.952 580.187 505.541L579.515 504.801Z" stroke="#D9D9D9" stroke-opacity="0.17" stroke-width="2" stroke-dasharray="4 8"/>
<path d="M409.594 634.264C408.863 631.625 408.163 629.013 407.494 626.428L408.462 626.178C408.128 624.888 407.801 623.606 407.483 622.33L406.512 622.573C405.864 619.98 405.247 617.415 404.661 614.878L405.635 614.653C405.327 613.321 405.028 611.996 404.737 610.679L403.76 610.895C403.177 608.254 402.628 605.645 402.112 603.066L403.092 602.87C402.835 601.583 402.586 600.305 402.346 599.034L401.363 599.22C400.854 596.527 400.381 593.868 399.946 591.243L400.932 591.079C400.713 589.756 400.503 588.441 400.302 587.135L399.314 587.287C398.908 584.648 398.541 582.044 398.211 579.475L399.203 579.347C399.029 577.989 398.865 576.639 398.711 575.3L397.718 575.414C397.41 572.726 397.144 570.076 396.92 567.464L397.917 567.378C397.805 566.074 397.703 564.78 397.612 563.495L396.614 563.566C396.419 560.818 396.271 558.113 396.169 555.45L397.168 555.412C397.118 554.086 397.079 552.771 397.051 551.467L396.051 551.488C395.993 548.771 395.985 546.099 396.025 543.471L397.025 543.487C397.046 542.143 397.079 540.811 397.125 539.491L396.126 539.456C396.22 536.765 396.366 534.122 396.565 531.525L397.562 531.602C397.665 530.25 397.782 528.911 397.913 527.584L396.918 527.486C397.182 524.818 397.502 522.202 397.877 519.636L398.867 519.781C399.064 518.433 399.276 517.099 399.504 515.779L398.518 515.609C398.977 512.953 399.496 510.352 400.075 507.806L401.05 508.027C401.349 506.716 401.663 505.419 401.993 504.137L401.025 503.888C401.698 501.272 402.438 498.716 403.242 496.218L404.193 496.525C404.603 495.252 405.029 493.996 405.472 492.754L404.53 492.418C405.436 489.877 406.412 487.398 407.455 484.982L408.373 485.378C408.902 484.154 409.448 482.946 410.011 481.754L409.107 481.327C410.256 478.895 411.476 476.528 412.767 474.225L413.639 474.714C414.29 473.553 414.958 472.408 415.644 471.28L414.79 470.76C416.182 468.47 417.646 466.246 419.181 464.087L419.996 464.666C420.765 463.584 421.553 462.518 422.357 461.468L421.564 460.86C423.189 458.739 424.886 456.683 426.652 454.691L427.401 455.354C428.278 454.365 429.172 453.392 430.083 452.434L429.359 451.744C431.196 449.814 433.101 447.947 435.073 446.141L435.749 446.878C436.721 445.988 437.709 445.112 438.714 444.252L438.063 443.492C440.081 441.764 442.163 440.095 444.309 438.483L444.909 439.282C445.962 438.491 447.03 437.714 448.114 436.951L447.538 436.133C449.704 434.606 451.931 433.134 454.215 431.715L454.743 432.565C455.862 431.87 456.995 431.187 458.142 430.518L457.638 429.654C459.923 428.32 462.263 427.036 464.656 425.8L465.115 426.688C466.286 426.084 467.47 425.491 468.666 424.909L468.229 424.01C470.608 422.854 473.036 421.743 475.512 420.676L475.907 421.595C477.118 421.073 478.339 420.562 479.573 420.062L479.197 419.135C481.648 418.14 484.144 417.187 486.683 416.273L487.022 417.214C488.261 416.768 489.51 416.331 490.77 415.904L490.449 414.957C492.957 414.106 495.506 413.293 498.093 412.515L498.381 413.473C499.641 413.095 500.909 412.725 502.187 412.363L501.915 411.401C504.469 410.679 507.059 409.99 509.685 409.333L509.928 410.303C511.201 409.985 512.482 409.675 513.772 409.372L513.543 408.398C516.131 407.79 518.753 407.212 521.406 406.663L521.609 407.643C522.893 407.377 524.185 407.118 525.484 406.867L525.294 405.885C527.894 405.381 530.525 404.904 533.183 404.453L533.351 405.439C534.659 405.218 535.974 405.002 537.296 404.793L537.14 403.806C539.745 403.394 542.378 403.006 545.036 402.642L545.171 403.633C546.497 403.451 547.829 403.276 549.168 403.106L549.042 402.114C551.654 401.782 554.29 401.473 556.949 401.185L557.056 402.179C558.38 402.035 559.709 401.897 561.044 401.764L560.945 400.769C563.579 400.507 566.235 400.265 568.912 400.042L568.995 401.039C570.314 400.929 571.639 400.824 572.97 400.724L572.894 399.727C575.549 399.527 578.223 399.345 580.917 399.182L580.977 400.18C582.293 400.1 583.613 400.025 584.937 399.953L584.884 398.955C587.537 398.812 590.209 398.686 592.899 398.577L592.94 399.576C594.269 399.522 595.603 399.471 596.941 399.425L596.907 398.426C599.548 398.334 602.207 398.258 604.881 398.197L604.904 399.197C606.239 399.166 607.578 399.139 608.921 399.116L608.904 398.116C611.552 398.07 614.215 398.038 616.892 398.019L616.899 399.019C618.227 399.01 619.558 399.004 620.894 399.002L620.892 398.002C623.557 397.996 626.236 398.004 628.929 398.024L628.921 399.024C630.242 399.034 631.567 399.047 632.894 399.063L632.906 398.063C635.565 398.094 638.235 398.138 640.919 398.193L640.898 399.192C642.236 399.22 643.576 399.25 644.919 399.283L644.944 398.283C647.588 398.348 650.244 398.423 652.911 398.508L652.879 399.508C654.211 399.55 655.546 399.596 656.884 399.643L656.92 398.644C659.578 398.739 662.247 398.844 664.927 398.958L664.884 399.957C666.209 400.013 667.537 400.072 668.867 400.133L668.913 399.134C671.575 399.256 674.247 399.387 676.929 399.526L676.877 400.525C677.547 400.56 678.217 400.595 678.888 400.631L678.925 400.633L678.963 400.632C679.66 400.618 680.356 400.604 681.048 400.591L681.029 399.591C683.803 399.539 686.535 399.5 689.226 399.473L689.236 400.473C690.58 400.46 691.914 400.45 693.238 400.443L693.233 399.443C695.883 399.429 698.494 399.428 701.065 399.439L701.06 400.439C702.431 400.445 703.791 400.454 705.139 400.467L705.149 399.467C707.913 399.494 710.631 399.535 713.302 399.592L713.281 400.592C714.614 400.62 715.936 400.652 717.247 400.687L717.274 399.688C719.955 399.76 722.589 399.848 725.176 399.952L725.136 400.951C726.522 401.007 727.895 401.066 729.254 401.131L729.301 400.132C732.024 400.26 734.693 400.407 737.31 400.57L737.247 401.568C738.553 401.65 739.846 401.736 741.125 401.827L741.196 400.829C743.969 401.025 746.682 401.241 749.334 401.478L749.246 402.474C750.591 402.594 751.922 402.719 753.237 402.849L753.335 401.854C756.006 402.119 758.615 402.405 761.163 402.713L761.043 403.705C762.425 403.872 763.789 404.045 765.135 404.224L765.267 403.233C767.968 403.593 770.597 403.977 773.156 404.387L772.999 405.374C774.312 405.584 775.607 405.801 776.884 406.024L777.056 405.039C779.804 405.519 782.469 406.029 785.052 406.569L784.848 407.548C786.134 407.817 787.4 408.093 788.645 408.376L788.867 407.401C791.592 408.022 794.222 408.677 796.761 409.367L796.499 410.332C797.78 410.68 799.038 411.037 800.272 411.403L800.557 410.444C803.224 411.234 805.784 412.066 808.243 412.938L807.908 413.88C809.162 414.325 810.388 414.78 811.588 415.245L811.95 414.313C814.543 415.319 817.015 416.374 819.372 417.477L818.948 418.382C820.143 418.942 821.307 419.513 822.442 420.097L822.899 419.208C825.373 420.48 827.71 421.811 829.916 423.2L829.384 424.046C830.51 424.755 831.601 425.479 832.659 426.217L833.231 425.397C835.48 426.966 837.581 428.602 839.543 430.304L838.888 431.059C839.909 431.945 840.892 432.848 841.838 433.769L842.535 433.052C844.483 434.948 846.279 436.919 847.934 438.963L847.157 439.592C847.988 440.619 848.783 441.664 849.544 442.728L850.358 442.147C851.921 444.332 853.341 446.595 854.631 448.933L853.755 449.416C854.39 450.567 854.993 451.737 855.567 452.925L856.467 452.491C857.62 454.882 858.652 457.346 859.576 459.883L858.636 460.225C859.086 461.46 859.51 462.714 859.91 463.985L860.864 463.684C861.655 466.197 862.351 468.776 862.964 471.421L861.989 471.647C862.288 472.935 862.567 474.239 862.827 475.559L863.808 475.366C864.318 477.951 864.756 480.595 865.134 483.296L864.144 483.435C864.324 484.727 864.491 486.033 864.645 487.352L865.638 487.236C865.944 489.853 866.198 492.521 866.411 495.239L865.414 495.317C865.517 496.63 865.609 497.956 865.693 499.294L866.691 499.231C866.856 501.859 866.987 504.531 867.091 507.248L866.091 507.286C866.142 508.615 866.186 509.955 866.225 511.306L867.224 511.277C867.3 513.907 867.353 516.577 867.392 519.286L866.392 519.3C866.411 520.639 866.427 521.988 866.439 523.346L867.439 523.337C867.463 525.967 867.477 528.633 867.484 531.333L866.484 531.336C866.488 532.68 866.491 534.033 866.492 535.395L867.492 535.394C867.494 536.79 867.495 538.196 867.496 539.611C867.497 540.86 867.498 542.117 867.5 543.38L866.5 543.381C866.501 544.004 866.501 544.628 866.503 545.254C866.504 545.978 866.505 546.704 866.507 547.432L867.507 547.43C867.514 550.066 867.524 552.731 867.544 555.425L866.544 555.432C866.554 556.775 866.566 558.125 866.581 559.483L867.581 559.472C867.61 562.11 867.649 564.775 867.702 567.466L866.703 567.486C866.729 568.832 866.76 570.184 866.794 571.543L867.794 571.518C867.861 574.155 867.943 576.816 868.045 579.501L867.045 579.539C867.096 580.884 867.152 582.235 867.213 583.592L868.212 583.547C868.33 586.185 868.468 588.845 868.63 591.527L867.631 591.587C867.712 592.928 867.799 594.274 867.891 595.627L868.889 595.558C869.07 598.197 869.275 600.856 869.506 603.536L868.51 603.622C868.625 604.957 868.747 606.298 868.876 607.643L869.872 607.547C870.125 610.186 870.405 612.844 870.716 615.521L869.722 615.636C869.876 616.963 870.037 618.294 870.206 619.631L871.198 619.505C871.532 622.142 871.895 624.798 872.292 627.471L871.303 627.618C871.498 628.934 871.701 630.254 871.912 631.578L872.9 631.421C873.321 634.056 873.774 636.708 874.263 639.376L873.279 639.556C873.518 640.858 873.765 642.164 874.021 643.474L875.002 643.283C875.512 645.895 876.057 648.523 876.638 651.166L875.662 651.381C875.808 652.043 875.956 652.707 876.106 653.372C876.261 654.053 876.413 654.731 876.564 655.408L877.54 655.19C878.146 657.902 878.725 660.582 879.281 663.231L878.302 663.436C878.579 664.758 878.85 666.072 879.114 667.379L880.095 667.181C880.629 669.82 881.139 672.429 881.623 675.006L880.64 675.191C880.898 676.559 881.148 677.918 881.391 679.268L882.375 679.091C882.863 681.797 883.322 684.468 883.754 687.105L882.767 687.267C882.982 688.582 883.191 689.889 883.392 691.188L884.381 691.034C884.804 693.763 885.198 696.453 885.562 699.107L884.571 699.243C884.757 700.598 884.935 701.944 885.106 703.281L886.098 703.154C886.439 705.833 886.75 708.474 887.03 711.076L886.036 711.183C886.183 712.552 886.322 713.91 886.452 715.258L887.448 715.161C887.714 717.915 887.945 720.624 888.142 723.291L887.145 723.365C887.243 724.694 887.333 726.013 887.414 727.321L888.412 727.259C888.584 730.028 888.717 732.75 888.814 735.425L887.814 735.461C887.863 736.819 887.902 738.164 887.932 739.498L888.931 739.476C888.992 742.204 889.012 744.882 888.994 747.511L887.994 747.504C887.984 748.885 887.963 750.252 887.931 751.606L888.931 751.629C888.868 754.347 888.761 757.012 888.612 759.624L887.614 759.567C887.535 760.945 887.445 762.309 887.343 763.657L888.34 763.733C888.132 766.477 887.876 769.16 887.572 771.785L886.579 771.67C886.424 773.011 886.256 774.336 886.077 775.646L887.068 775.782C886.691 778.528 886.261 781.208 885.778 783.822L884.795 783.641C884.552 784.955 884.296 786.253 884.027 787.534L885.006 787.739C884.435 790.458 883.805 793.104 883.118 795.679L882.152 795.421C881.808 796.713 881.449 797.985 881.076 799.24L882.034 799.525C881.244 802.182 880.391 804.759 879.476 807.26L878.537 806.917C878.075 808.178 877.598 809.421 877.105 810.643L878.032 811.017C877.002 813.57 875.905 816.04 874.743 818.429L873.844 817.991C873.251 819.208 872.642 820.404 872.017 821.578L872.899 822.048C871.615 824.459 870.26 826.783 868.837 829.024L867.993 828.488C867.265 829.634 866.52 830.758 865.757 831.86L866.579 832.43C865.028 834.67 863.405 836.822 861.713 838.889L860.939 838.256C860.087 839.296 859.218 840.315 858.332 841.312L859.079 841.976C857.275 844.005 855.401 845.946 853.458 847.803L852.767 847.08C851.8 848.005 850.816 848.909 849.815 849.792L850.477 850.542C848.451 852.33 846.357 854.035 844.199 855.662L843.597 854.863C842.53 855.667 841.446 856.452 840.346 857.219L840.918 858.039C838.708 859.579 836.435 861.042 834.103 862.433L833.591 861.574C832.447 862.256 831.289 862.921 830.117 863.568L830.6 864.444C828.249 865.742 825.842 866.972 823.381 868.137L822.953 867.234C821.748 867.804 820.531 868.359 819.3 868.899L819.702 869.814C817.248 870.891 814.745 871.907 812.195 872.866L811.843 871.93C810.589 872.401 809.325 872.859 808.049 873.303L808.378 874.248C805.852 875.127 803.282 875.955 800.673 876.733L800.387 875.775C799.098 876.159 797.798 876.531 796.489 876.892L796.755 877.856C794.18 878.566 791.567 879.23 788.919 879.853L788.69 878.88C787.38 879.188 786.06 879.485 784.732 879.773L784.944 880.751C782.331 881.317 779.686 881.844 777.011 882.336L776.83 881.353C775.51 881.595 774.182 881.829 772.847 882.054L773.013 883.04C770.37 883.486 767.699 883.899 765.002 884.282L764.861 883.292C763.535 883.48 762.202 883.66 760.863 883.834L760.991 884.825C758.328 885.17 755.64 885.487 752.93 885.778L752.823 884.783C751.492 884.926 750.156 885.063 748.814 885.193L748.911 886.188C746.234 886.449 743.536 886.685 740.82 886.9L740.741 885.903C739.406 886.009 738.067 886.109 736.723 886.205L736.794 887.202C734.108 887.393 731.405 887.563 728.687 887.716L728.631 886.717C727.293 886.793 725.951 886.863 724.606 886.93L724.655 887.929C721.964 888.062 719.259 888.18 716.541 888.282L716.504 887.283C715.163 887.334 713.818 887.381 712.471 887.425L712.504 888.424C709.81 888.512 707.105 888.587 704.389 888.65L704.366 887.651C703.022 887.682 701.675 887.711 700.326 887.737L700.346 888.737C697.651 888.789 694.946 888.832 692.233 888.866L692.221 887.866C690.874 887.883 689.526 887.898 688.175 887.911L688.185 888.911C685.489 888.937 682.785 888.956 680.076 888.969L680.071 887.969C678.722 887.976 677.372 887.981 676.02 887.986L676.023 888.986C673.326 888.994 670.623 888.998 667.916 889L667.916 888L667.229 888C666.782 888 666.334 888 665.886 888C665.197 888 664.511 887.996 663.827 887.989L663.817 888.989C661.069 888.961 658.364 888.877 655.7 888.737L655.753 887.739C654.402 887.668 653.063 887.583 651.734 887.484L651.66 888.481C648.922 888.277 646.228 888.014 643.578 887.693L643.698 886.701C642.355 886.538 641.023 886.36 639.701 886.168L639.557 887.158C636.849 886.764 634.185 886.308 631.566 885.792L631.759 884.811C630.428 884.549 629.109 884.272 627.801 883.979L627.582 884.955C624.922 884.359 622.308 883.701 619.738 882.981L620.007 882.018C618.698 881.652 617.4 881.27 616.114 880.871L615.818 881.827C613.217 881.022 610.662 880.153 608.151 879.223L608.498 878.285C607.229 877.815 605.972 877.329 604.725 876.828L604.352 877.756C601.83 876.741 599.352 875.664 596.917 874.525L597.341 873.619C596.12 873.048 594.911 872.462 593.711 871.861L593.263 872.754C590.838 871.539 588.456 870.261 586.113 868.924L586.608 868.056C585.441 867.389 584.283 866.708 583.135 866.012L582.616 866.868C580.302 865.465 578.027 864.004 575.788 862.486L576.349 861.659C575.236 860.904 574.132 860.135 573.036 859.353L572.455 860.167C570.258 858.597 568.097 856.973 565.968 855.295L566.587 854.51C565.532 853.679 564.485 852.834 563.446 851.977L562.809 852.748C560.728 851.032 558.678 849.264 556.656 847.447L557.325 846.704C556.328 845.808 555.339 844.901 554.356 843.982L553.673 844.712C551.704 842.871 549.763 840.983 547.846 839.051L548.556 838.347C547.612 837.396 546.675 836.434 545.743 835.461L545.021 836.153C543.158 834.209 541.318 832.223 539.5 830.198L540.244 829.53C539.347 828.531 538.455 827.522 537.568 826.504L536.814 827.161C535.048 825.133 533.3 823.067 531.57 820.966L532.342 820.33C531.487 819.292 530.636 818.245 529.788 817.189L529.009 817.815C527.326 815.718 525.66 813.589 524.007 811.427L524.802 810.82C523.983 809.749 523.167 808.671 522.355 807.585L521.554 808.183C519.945 806.032 518.348 803.852 516.762 801.643L517.574 801.06C516.786 799.963 516.001 798.859 515.218 797.749L514.401 798.325C512.854 796.13 511.315 793.909 509.785 791.664L510.611 791.101C509.849 789.984 509.09 788.861 508.331 787.731L507.501 788.289C506.004 786.059 504.514 783.807 503.028 781.534L503.866 780.987C503.125 779.854 502.386 778.716 501.648 777.572L500.808 778.115C499.351 775.859 497.898 773.583 496.448 771.288L497.293 770.754C496.57 769.609 495.847 768.46 495.124 767.306L494.277 767.837C492.851 765.561 491.427 763.267 490.002 760.958L490.854 760.433C490.142 759.28 489.431 758.123 488.72 756.963L487.868 757.485C486.463 755.194 485.059 752.888 483.652 750.569L484.507 750.05C483.805 748.892 483.102 747.73 482.398 746.566L481.542 747.083C480.152 744.781 478.758 742.468 477.362 740.143L478.219 739.628C477.521 738.467 476.822 737.304 476.122 736.137L475.265 736.652C474.235 734.936 473.203 733.214 472.167 731.487C471.811 730.893 471.454 730.298 471.097 729.702L471.955 729.188C471.258 728.027 470.56 726.863 469.861 725.698L469.004 726.212C467.618 723.904 466.227 721.587 464.827 719.264L465.684 718.748C464.986 717.589 464.286 716.427 463.583 715.264L462.727 715.781C461.334 713.475 459.934 711.163 458.524 708.846L459.378 708.326C458.675 707.17 457.969 706.013 457.261 704.855L456.408 705.376C455.001 703.076 453.585 700.772 452.159 698.465L453.009 697.939C452.298 696.788 451.584 695.637 450.867 694.486L450.018 695.014C448.592 692.724 447.156 690.431 445.707 688.137L446.552 687.603C445.83 686.46 445.105 685.316 444.377 684.173L443.534 684.71C442.084 682.433 440.621 680.155 439.144 677.878L439.983 677.334C439.248 676.2 438.51 675.066 437.767 673.933L436.931 674.48C435.451 672.22 433.958 669.962 432.449 667.705L433.28 667.149C432.53 666.026 431.775 664.903 431.017 663.782L430.188 664.342C428.675 662.103 427.145 659.866 425.6 657.633L426.422 657.064C425.653 655.954 424.881 654.845 424.104 653.737L423.285 654.311C421.734 652.097 420.166 649.888 418.579 647.684L419.391 647.1C418.602 646.003 417.809 644.908 417.011 643.814L416.203 644.404C414.612 642.222 413.002 640.046 411.373 637.876L412.172 637.276C411.802 636.783 411.431 636.29 411.059 635.797C410.89 635.196 410.723 634.596 410.557 633.998L409.594 634.264Z" stroke="#D9D9D9" stroke-opacity="0.12" stroke-width="2" stroke-dasharray="4 8"/>
<path d="M789.348 312.367C792.08 312.669 794.788 312.983 797.471 313.309L797.351 314.302C798.691 314.464 800.025 314.63 801.354 314.798L801.479 313.806C804.14 314.143 806.776 314.492 809.388 314.852L809.252 315.843C810.556 316.023 811.854 316.205 813.147 316.391L813.289 315.401C815.931 315.781 818.549 316.172 821.142 316.575L820.989 317.563C822.343 317.774 823.691 317.988 825.033 318.205L825.192 317.218C827.879 317.652 830.539 318.1 833.173 318.561L833 319.546C834.315 319.776 835.623 320.009 836.924 320.245L837.103 319.261C839.71 319.735 842.291 320.221 844.845 320.72L844.653 321.702C845.947 321.954 847.235 322.211 848.515 322.47L848.714 321.49C851.415 322.037 854.086 322.598 856.727 323.174L856.514 324.151C857.832 324.438 859.143 324.729 860.446 325.024L860.667 324.048C863.278 324.638 865.861 325.243 868.413 325.861L868.178 326.833C869.452 327.142 870.718 327.454 871.978 327.77L872.221 326.8C874.857 327.461 877.461 328.137 880.033 328.829L879.773 329.795C881.086 330.148 882.391 330.505 883.687 330.865L883.955 329.902C886.553 330.626 889.118 331.365 891.651 332.12L891.365 333.078C892.628 333.455 893.883 333.836 895.13 334.22L895.425 333.265C897.995 334.057 900.53 334.866 903.031 335.692L902.718 336.642C904.013 337.069 905.299 337.501 906.576 337.937L906.899 336.991C909.46 337.866 911.984 338.759 914.471 339.669L914.128 340.608C915.368 341.062 916.599 341.521 917.822 341.983L918.176 341.048C920.688 341.999 923.163 342.968 925.6 343.956L925.225 344.882C926.487 345.394 927.74 345.911 928.983 346.432L929.369 345.51C931.862 346.556 934.314 347.621 936.727 348.706L936.317 349.618C937.519 350.159 938.711 350.704 939.893 351.254L940.315 350.348C942.766 351.488 945.175 352.65 947.542 353.831L947.095 354.726C948.307 355.331 949.508 355.942 950.698 356.557L951.158 355.669C953.546 356.905 955.89 358.162 958.191 359.441L957.705 360.315C958.851 360.952 959.986 361.594 961.11 362.241L961.609 361.374C963.976 362.737 966.295 364.123 968.568 365.532L968.041 366.382C969.181 367.089 970.309 367.802 971.426 368.521L971.967 367.68C974.209 369.123 976.404 370.589 978.551 372.079L977.981 372.9C979.085 373.666 980.176 374.437 981.254 375.214L981.839 374.403C984.044 375.992 986.198 377.606 988.3 379.245L987.685 380.034C988.732 380.849 989.765 381.671 990.786 382.499L991.416 381.722C993.503 383.414 995.537 385.132 997.52 386.874L996.86 387.626C997.871 388.514 998.868 389.409 999.852 390.31L1000.53 389.573C1002.5 391.385 1004.43 393.224 1006.3 395.088L1005.59 395.796C1006.53 396.729 1007.45 397.668 1008.36 398.614L1009.08 397.921C1010.96 399.873 1012.78 401.853 1014.54 403.86L1013.79 404.52C1014.67 405.518 1015.53 406.523 1016.38 407.534L1017.15 406.89C1018.87 408.94 1020.54 411.017 1022.15 413.121L1021.36 413.729C1022.17 414.79 1022.97 415.858 1023.75 416.933L1024.56 416.343C1026.14 418.505 1027.66 420.695 1029.13 422.911L1028.29 423.463C1029.02 424.569 1029.74 425.682 1030.45 426.801L1031.29 426.269C1032.72 428.539 1034.09 430.837 1035.41 433.161L1034.54 433.654C1035.19 434.809 1035.83 435.972 1036.46 437.141L1037.34 436.668C1038.6 439.022 1039.81 441.402 1040.96 443.809L1040.05 444.24C1040.63 445.438 1041.19 446.642 1041.73 447.853L1042.64 447.442C1043.74 449.877 1044.79 452.338 1045.78 454.825L1044.85 455.195C1045.34 456.426 1045.82 457.663 1046.28 458.906L1047.22 458.556C1048.15 461.051 1049.03 463.57 1049.86 466.114L1048.91 466.423C1049.32 467.688 1049.72 468.96 1050.1 470.237L1051.06 469.948C1051.83 472.49 1052.55 475.057 1053.22 477.647L1052.26 477.898C1052.59 479.18 1052.91 480.468 1053.22 481.762L1054.19 481.53C1054.81 484.13 1055.38 486.753 1055.91 489.399L1054.93 489.594C1055.18 490.885 1055.43 492.182 1055.66 493.485L1056.65 493.308C1057.12 495.919 1057.54 498.552 1057.92 501.206L1056.93 501.348C1057.12 502.669 1057.3 503.996 1057.47 505.327L1058.46 505.202C1058.79 507.829 1059.08 510.477 1059.33 513.144L1058.33 513.236C1058.46 514.554 1058.57 515.876 1058.67 517.204L1059.67 517.126C1059.87 519.791 1060.04 522.476 1060.17 525.179L1059.17 525.226C1059.23 526.543 1059.28 527.865 1059.32 529.191L1060.32 529.159C1060.41 531.802 1060.46 534.462 1060.47 537.141L1059.47 537.145C1059.48 538.48 1059.47 539.819 1059.46 541.162L1060.46 541.171C1060.44 543.825 1060.38 546.496 1060.29 549.184L1059.29 549.15C1059.25 550.468 1059.19 551.791 1059.13 553.117L1060.13 553.163C1060.01 555.824 1059.85 558.5 1059.67 561.192L1058.67 561.123C1058.58 562.462 1058.47 563.806 1058.37 565.153L1059.36 565.233C1059.15 567.855 1058.91 570.491 1058.64 573.141L1057.64 573.039C1057.51 574.36 1057.36 575.685 1057.21 577.014L1058.21 577.126C1057.91 579.79 1057.58 582.467 1057.22 585.159L1056.23 585.027C1056.06 586.328 1055.88 587.632 1055.69 588.939L1056.68 589.08C1056.31 591.698 1055.91 594.329 1055.48 596.973L1054.5 596.815C1054.29 598.133 1054.07 599.456 1053.84 600.781L1054.83 600.948C1054.38 603.574 1053.91 606.211 1053.42 608.861L1052.43 608.677C1052.19 609.973 1051.94 611.271 1051.69 612.573L1052.67 612.764C1052.16 615.372 1051.63 617.99 1051.08 620.62L1050.1 620.414C1049.82 621.726 1049.54 623.041 1049.25 624.359L1050.23 624.573C1049.66 627.161 1049.08 629.76 1048.47 632.369L1047.49 632.141C1047.19 633.43 1046.89 634.721 1046.58 636.014L1047.55 636.248C1046.93 638.839 1046.28 641.44 1045.62 644.05L1044.65 643.804C1044.32 645.107 1043.98 646.413 1043.64 647.721L1044.61 647.973C1043.94 650.528 1043.26 653.092 1042.55 655.664L1041.59 655.4C1041.24 656.68 1040.88 657.961 1040.52 659.245L1041.49 659.514C1040.77 662.085 1040.03 664.665 1039.27 667.253L1038.31 666.972C1037.93 668.265 1037.55 669.559 1037.17 670.856L1038.12 671.141C1037.37 673.668 1036.6 676.202 1035.82 678.744L1034.86 678.449C1034.47 679.718 1034.07 680.989 1033.67 682.262L1034.63 682.562C1033.82 685.11 1033.01 687.667 1032.17 690.231L1031.22 689.922C1030.81 691.201 1030.39 692.482 1029.96 693.764L1030.91 694.078C1030.08 696.583 1029.24 699.095 1028.38 701.614L1027.44 701.292C1027.01 702.55 1026.58 703.81 1026.14 705.071L1027.09 705.398C1026.22 707.923 1025.33 710.456 1024.43 712.995L1023.49 712.662C1023.04 713.93 1022.59 715.2 1022.13 716.472L1023.07 716.81C1022.18 719.295 1021.27 721.786 1020.36 724.284L1019.42 723.939C1018.96 725.187 1018.5 726.435 1018.03 727.686L1018.97 728.034C1018.04 730.537 1017.1 733.046 1016.14 735.561L1015.21 735.206C1014.73 736.462 1014.25 737.72 1013.76 738.98L1014.7 739.338C1013.75 741.81 1012.79 744.287 1011.81 746.77L1010.88 746.405C1010.4 747.642 1009.91 748.88 1009.42 750.119L1010.35 750.487C1009.37 752.968 1008.38 755.454 1007.37 757.945L1006.45 757.572C1005.95 758.817 1005.44 760.063 1004.94 761.31L1005.86 761.686C1004.86 764.148 1003.85 766.614 1002.83 769.085L1001.91 768.703C1001.4 769.93 1000.89 771.158 1000.38 772.387L1001.3 772.771C1000.28 775.231 999.242 777.696 998.198 780.165L997.277 779.776C996.755 781.009 996.231 782.244 995.704 783.48L996.624 783.872C995.579 786.326 994.524 788.784 993.46 791.246L992.542 790.85C992.016 792.067 991.488 793.285 990.958 794.505L991.875 794.904C990.813 797.344 989.743 799.788 988.664 802.237L987.748 801.834C987.209 803.057 986.668 804.282 986.124 805.508L987.038 805.913C985.953 808.361 984.859 810.812 983.757 813.268L982.844 812.858C982.302 814.067 981.757 815.277 981.211 816.487L982.122 816.899C981.028 819.321 979.927 821.747 978.818 824.177L977.908 823.762C977.354 824.976 976.798 826.191 976.239 827.407L977.148 827.825C976.032 830.258 974.907 832.695 973.776 835.135L972.869 834.715C972.586 835.324 972.302 835.934 972.019 836.545L972.003 836.578L971.99 836.613C971.742 837.27 971.494 837.926 971.247 838.579L972.182 838.933C971.19 841.549 970.202 844.137 969.215 846.697L968.282 846.337C967.789 847.616 967.297 848.888 966.805 850.154L967.737 850.516C966.752 853.048 965.77 855.553 964.79 858.03L963.861 857.662C963.371 858.9 962.882 860.131 962.393 861.355L963.322 861.725C962.345 864.175 961.369 866.598 960.395 868.993L959.469 868.617C958.956 869.878 958.444 871.132 957.933 872.378L958.858 872.758C957.796 875.346 956.737 877.902 955.68 880.426L954.757 880.04C954.229 881.3 953.702 882.553 953.175 883.798L954.096 884.188C953.041 886.681 951.988 889.141 950.938 891.571L950.02 891.174C949.495 892.387 948.971 893.593 948.448 894.791L949.364 895.191C948.295 897.638 947.228 900.052 946.163 902.434L945.25 902.026C944.678 903.305 944.107 904.574 943.537 905.835L944.448 906.247C943.306 908.771 942.166 911.258 941.028 913.708L940.121 913.287C939.553 914.511 938.986 915.726 938.419 916.931L939.324 917.357C938.189 919.771 937.056 922.149 935.925 924.491L935.024 924.056C934.46 925.226 933.896 926.386 933.332 927.538L934.23 927.977C932.991 930.511 931.753 933.002 930.518 935.451L929.625 935.001C929.008 936.225 928.391 937.438 927.775 938.641L928.665 939.097C927.431 941.506 926.199 943.873 924.969 946.198L924.085 945.731C923.471 946.892 922.858 948.042 922.245 949.182L923.126 949.656C921.823 952.081 920.521 954.46 919.222 956.793L918.348 956.307C917.675 957.516 917.002 958.712 916.33 959.896L917.2 960.39C915.853 962.763 914.509 965.087 913.166 967.363L912.305 966.855C911.635 967.99 910.966 969.113 910.297 970.225L911.154 970.74C909.738 973.092 908.325 975.391 906.913 977.637L906.067 977.105C905.33 978.277 904.594 979.434 903.859 980.577L904.7 981.118C903.226 983.411 901.753 985.646 900.282 987.825L899.453 987.266C898.72 988.352 897.987 989.425 897.254 990.483L898.076 991.052C896.49 993.345 894.906 995.572 893.323 997.737L892.516 997.146C891.708 998.25 890.901 999.338 890.095 1000.41L890.893 1001.01C889.274 1003.16 887.657 1005.24 886.039 1007.26L885.259 1006.64C884.413 1007.7 883.568 1008.73 882.723 1009.75L883.494 1010.39C881.711 1012.55 879.93 1014.62 878.148 1016.62L877.401 1015.96C876.515 1016.96 875.628 1017.93 874.742 1018.89L875.476 1019.57C873.615 1021.58 871.753 1023.52 869.891 1025.37L869.186 1024.66C868.213 1025.63 867.24 1026.58 866.268 1027.5L866.957 1028.23C865 1030.09 863.042 1031.86 861.083 1033.55L860.429 1032.8C859.39 1033.69 858.351 1034.57 857.311 1035.42L857.943 1036.19C855.809 1037.93 853.672 1039.58 851.532 1041.14L850.944 1040.33C849.882 1041.1 848.819 1041.85 847.756 1042.57L848.319 1043.4C846.02 1044.96 843.717 1046.42 841.409 1047.78L840.902 1046.92C839.756 1047.59 838.608 1048.24 837.459 1048.87L837.936 1049.74C835.528 1051.05 833.113 1052.25 830.691 1053.35L830.279 1052.43C829.06 1052.99 827.838 1053.51 826.615 1054.01L826.992 1054.94C824.479 1055.96 821.956 1056.88 819.423 1057.69L819.118 1056.74C817.843 1057.14 816.566 1057.53 815.285 1057.88L815.553 1058.85C812.954 1059.57 810.344 1060.19 807.721 1060.7L807.527 1059.72C806.218 1059.98 804.905 1060.21 803.588 1060.42L803.744 1061.41C801.09 1061.83 798.422 1062.14 795.739 1062.37L795.656 1061.37C794.331 1061.49 793.003 1061.57 791.671 1061.64L791.72 1062.64C789.041 1062.77 786.347 1062.81 783.636 1062.77L783.651 1061.77C782.329 1061.75 781.002 1061.71 779.671 1061.65L779.626 1062.65C776.945 1062.53 774.247 1062.33 771.53 1062.05L771.631 1061.06C770.322 1060.92 769.009 1060.77 767.691 1060.61L767.565 1061.6C764.913 1061.26 762.243 1060.86 759.554 1060.39L759.725 1059.41C758.418 1059.18 757.106 1058.94 755.789 1058.68L755.597 1059.66C752.989 1059.16 750.362 1058.59 747.715 1057.98L747.942 1057C746.628 1056.7 745.309 1056.38 743.986 1056.04L743.743 1057.01C741.183 1056.37 738.604 1055.69 736.005 1054.96L736.276 1053.99C734.981 1053.63 733.681 1053.25 732.376 1052.87L732.093 1053.83C729.549 1053.08 726.987 1052.29 724.405 1051.46L724.709 1050.51C723.437 1050.1 722.161 1049.69 720.879 1049.27L720.565 1050.22C718.025 1049.38 715.465 1048.51 712.885 1047.61L713.215 1046.66C711.965 1046.22 710.71 1045.78 709.45 1045.33L709.114 1046.27C706.59 1045.37 704.046 1044.45 701.482 1043.49L701.83 1042.56C700.578 1042.09 699.321 1041.62 698.059 1041.15L697.706 1042.08C695.223 1041.15 692.72 1040.19 690.197 1039.22L690.557 1038.29C689.297 1037.8 688.032 1037.31 686.762 1036.81L686.398 1037.75C683.922 1036.78 681.426 1035.8 678.91 1034.8L679.278 1033.87C678.035 1033.38 676.787 1032.89 675.534 1032.39L675.165 1033.32C672.662 1032.32 670.14 1031.32 667.597 1030.3L667.969 1029.37L666.612 1028.83C665.832 1028.52 665.051 1028.2 664.268 1027.89L663.896 1028.82C663.207 1028.54 662.516 1028.27 661.823 1027.99C660.028 1027.27 658.223 1026.55 656.407 1025.82L656.778 1024.89C655.52 1024.39 654.257 1023.88 652.989 1023.38L652.619 1024.31C650.151 1023.32 647.663 1022.33 645.157 1021.34L645.525 1020.41C644.28 1019.92 643.029 1019.42 641.774 1018.93L641.407 1019.86C638.897 1018.87 636.369 1017.87 633.82 1016.88L634.183 1015.95C632.947 1015.47 631.706 1014.99 630.461 1014.51L630.101 1015.44C627.612 1014.48 625.105 1013.52 622.578 1012.56L622.933 1011.62C621.669 1011.14 620.4 1010.67 619.125 1010.19L618.774 1011.12C616.274 1010.18 613.755 1009.25 611.218 1008.32L611.562 1007.38C610.307 1006.92 609.047 1006.46 607.782 1006L607.441 1006.94C604.914 1006.02 602.368 1005.11 599.802 1004.21L600.135 1003.26C598.862 1002.81 597.585 1002.37 596.302 1001.92L595.974 1002.87C593.463 1001.99 590.934 1001.13 588.385 1000.27L588.704 999.324C587.428 998.895 586.148 998.468 584.863 998.043L584.549 998.993C581.991 998.148 579.414 997.311 576.818 996.485L577.121 995.532C575.853 995.128 574.58 994.727 573.303 994.329L573.005 995.283C570.454 994.488 567.885 993.702 565.297 992.928L565.583 991.97C564.287 991.583 562.986 991.198 561.681 990.817L561.4 991.776C558.832 991.026 556.245 990.287 553.639 989.561L553.907 988.598C552.619 988.24 551.327 987.884 550.031 987.532L549.769 988.497C547.18 987.795 544.572 987.105 541.946 986.43L542.195 985.462C540.879 985.124 539.559 984.789 538.234 984.459L537.992 985.429C535.411 984.785 532.812 984.155 530.194 983.541L530.423 982.567C529.118 982.261 527.808 981.959 526.494 981.66L526.272 982.635C523.648 982.039 521.006 981.459 518.345 980.896L518.552 979.917C517.226 979.637 515.896 979.36 514.561 979.088L514.361 980.068C511.761 979.538 509.143 979.024 506.507 978.528L506.692 977.545C505.372 977.297 504.047 977.053 502.717 976.813L502.54 977.797C499.886 977.318 497.214 976.858 494.524 976.416L494.686 975.429C494.012 975.318 493.337 975.209 492.66 975.1C491.98 974.991 491.301 974.882 490.624 974.772L490.464 975.759C487.752 975.319 485.065 974.872 482.401 974.417L482.569 973.431C481.239 973.204 479.914 972.975 478.596 972.745L478.424 973.73C475.784 973.268 473.168 972.799 470.576 972.323L470.757 971.339C469.462 971.101 468.174 970.861 466.891 970.62L466.706 971.603C464.12 971.116 461.557 970.622 459.019 970.12L459.212 969.139C457.862 968.873 456.519 968.604 455.182 968.333L454.984 969.314C452.307 968.772 449.658 968.221 447.035 967.663L447.243 966.685C445.933 966.406 444.63 966.126 443.334 965.843L443.12 966.82C440.524 966.253 437.954 965.679 435.411 965.097L435.634 964.122C434.364 963.831 433.101 963.538 431.844 963.244L431.615 964.217C428.964 963.595 426.341 962.965 423.748 962.325L423.987 961.354C422.667 961.029 421.355 960.701 420.05 960.371L419.805 961.341C417.191 960.68 414.607 960.01 412.053 959.331L412.31 958.365C411.035 958.026 409.767 957.685 408.507 957.342L408.244 958.307C405.697 957.613 403.18 956.91 400.692 956.198L400.967 955.236C399.645 954.858 398.331 954.477 397.025 954.093L396.743 955.053C394.127 954.284 391.544 953.506 388.995 952.717L389.291 951.761C388.018 951.368 386.754 950.972 385.498 950.573L385.196 951.526C382.68 950.727 380.196 949.918 377.745 949.1L378.062 948.151C376.791 947.726 375.529 947.299 374.276 946.869L373.952 947.815C371.354 946.924 368.794 946.021 366.27 945.108L366.611 944.167C365.352 943.711 364.102 943.253 362.862 942.791L362.513 943.728C360.027 942.803 357.577 941.867 355.164 940.919L355.53 939.988C354.301 939.506 353.082 939.021 351.873 938.533L351.499 939.46C348.946 938.43 346.435 937.387 343.965 936.331L344.358 935.412C343.126 934.885 341.905 934.355 340.694 933.823L340.291 934.738C337.863 933.67 335.476 932.589 333.129 931.496L333.551 930.59C332.341 930.026 331.142 929.459 329.954 928.889L329.521 929.791C327.048 928.604 324.62 927.403 322.239 926.188L322.693 925.297C321.506 924.691 320.331 924.082 319.167 923.47L318.701 924.355C316.361 923.124 314.067 921.879 311.818 920.62L312.306 919.747C311.108 919.077 309.923 918.403 308.751 917.725L308.25 918.59C305.898 917.229 303.596 915.853 301.344 914.461L301.87 913.61C300.749 912.917 299.64 912.22 298.543 911.519L298.005 912.361C295.731 910.908 293.51 909.438 291.341 907.952L291.907 907.127C290.792 906.363 289.691 905.595 288.604 904.823L288.024 905.638C285.841 904.087 283.712 902.518 281.638 900.934L282.246 900.139C281.198 899.338 280.164 898.533 279.144 897.724L278.523 898.508C276.381 896.809 274.3 895.091 272.278 893.355L272.929 892.596C271.924 891.732 270.933 890.864 269.956 889.992L269.29 890.737C267.287 888.947 265.345 887.137 263.463 885.31L264.16 884.592C263.195 883.654 262.245 882.711 261.311 881.764L260.599 882.465C258.721 880.56 256.906 878.634 255.153 876.69L255.896 876.02C255.005 875.031 254.129 874.036 253.27 873.037L252.512 873.689C250.748 871.638 249.051 869.567 247.419 867.475L248.207 866.86C247.397 865.82 246.602 864.776 245.824 863.726L245.02 864.322C243.415 862.158 241.877 859.972 240.406 857.766L241.238 857.212C240.501 856.106 239.78 854.995 239.076 853.879L238.23 854.412C236.804 852.152 235.446 849.871 234.153 847.57L235.025 847.08C234.372 845.917 233.736 844.75 233.117 843.577L232.233 844.043C230.986 841.682 229.807 839.3 228.692 836.898L229.6 836.477C229.041 835.273 228.5 834.064 227.974 832.85L227.057 833.247C225.995 830.794 224.999 828.321 224.068 825.827L225.005 825.477C224.542 824.238 224.095 822.994 223.664 821.746L222.719 822.072C221.849 819.552 221.043 817.012 220.299 814.453L221.259 814.174C220.889 812.902 220.535 811.625 220.195 810.344L219.229 810.6C218.548 808.029 217.928 805.44 217.366 802.832L218.344 802.622C218.065 801.329 217.801 800.031 217.551 798.729L216.569 798.917C216.068 796.303 215.624 793.671 215.235 791.021L216.224 790.876C216.033 789.572 215.855 788.264 215.691 786.952L214.699 787.076C214.368 784.438 214.09 781.783 213.864 779.111L214.861 779.027C214.749 777.708 214.65 776.385 214.564 775.058L213.566 775.123C213.394 772.483 213.271 769.827 213.195 767.156L214.195 767.127C214.157 765.798 214.131 764.464 214.116 763.127L213.117 763.138C213.088 760.495 213.104 757.837 213.164 755.166L214.164 755.188C214.194 753.865 214.234 752.538 214.285 751.207L213.286 751.169C213.387 748.513 213.53 745.844 213.713 743.162L214.711 743.231C214.801 741.917 214.9 740.601 215.009 739.281L214.013 739.199C214.231 736.55 214.488 733.89 214.781 731.217L215.775 731.327C215.92 730.008 216.073 728.686 216.236 727.362L215.243 727.24C215.564 724.619 215.92 721.988 216.308 719.346L217.297 719.491C217.491 718.174 217.692 716.854 217.902 715.531L216.915 715.375C217.329 712.76 217.775 710.135 218.251 707.501L219.235 707.679C219.47 706.377 219.712 705.073 219.962 703.767L218.98 703.579C219.48 700.96 220.009 698.331 220.565 695.693L221.544 695.9C221.816 694.612 222.094 693.321 222.379 692.028L221.402 691.813C221.972 689.227 222.567 686.632 223.187 684.03L224.16 684.262C224.469 682.963 224.785 681.662 225.106 680.359L224.135 680.12C224.769 677.552 225.425 674.976 226.104 672.393L227.071 672.647C227.408 671.365 227.75 670.081 228.097 668.794L227.132 668.534C227.828 665.958 228.545 663.374 229.283 660.785L230.245 661.058C230.605 659.791 230.971 658.522 231.341 657.251L230.381 656.971C231.123 654.425 231.884 651.874 232.662 649.316L233.619 649.607C234.007 648.33 234.4 647.051 234.798 645.771L233.843 645.474C234.628 642.943 235.43 640.407 236.248 637.864L237.2 638.171C237.607 636.908 238.017 635.643 238.431 634.377L237.48 634.067C238.31 631.532 239.154 628.992 240.012 626.448L240.959 626.767C241.383 625.512 241.81 624.255 242.24 622.996L241.294 622.673C242.152 620.163 243.023 617.649 243.907 615.131L244.85 615.462C245.292 614.204 245.736 612.945 246.183 611.685L245.241 611.35C246.13 608.845 247.031 606.335 247.943 603.821L248.883 604.162C249.335 602.915 249.79 601.667 250.248 600.417L249.309 600.073C250.225 597.573 251.15 595.068 252.085 592.561L253.022 592.91C253.488 591.66 253.957 590.409 254.427 589.157L253.491 588.805C254.425 586.322 255.367 583.835 256.316 581.346L257.25 581.702C257.725 580.458 258.201 579.213 258.679 577.967L257.746 577.609C258.701 575.12 259.664 572.629 260.633 570.134L261.565 570.497C262.046 569.259 262.528 568.021 263.012 566.782L262.08 566.418C263.048 563.939 264.022 561.458 265 558.975L265.931 559.341C266.42 558.1 266.91 556.858 267.402 555.616L266.472 555.248C267.451 552.774 268.434 550.297 269.421 547.819L270.35 548.189C270.587 547.593 270.825 546.997 271.063 546.401C271.318 545.76 271.574 545.119 271.83 544.478L270.901 544.107C271.89 541.632 272.882 539.154 273.876 536.676L274.804 537.048L275.549 535.189C275.802 534.559 276.057 533.932 276.312 533.307L275.387 532.928C276.412 530.419 277.461 527.949 278.532 525.515L279.447 525.918C279.981 524.705 280.52 523.502 281.064 522.307L280.154 521.893C281.263 519.461 282.395 517.067 283.549 514.711L284.447 515.151C285.039 513.943 285.637 512.744 286.241 511.555L285.35 511.102C286.562 508.716 287.797 506.369 289.056 504.06L289.934 504.539C290.562 503.388 291.195 502.246 291.835 501.114L290.964 500.622C292.297 498.263 293.654 495.944 295.037 493.665L295.892 494.184C296.58 493.049 297.275 491.924 297.975 490.809L297.129 490.277C298.549 488.018 299.994 485.799 301.463 483.619L302.293 484.178C303.042 483.067 303.797 481.966 304.559 480.875L303.739 480.303C305.27 478.112 306.825 475.963 308.406 473.854L309.207 474.453C309.999 473.396 310.797 472.349 311.602 471.312L310.812 470.699C312.461 468.574 314.137 466.49 315.838 464.448L316.607 465.087C317.454 464.07 318.307 463.063 319.167 462.066L318.41 461.413C320.155 459.39 321.927 457.407 323.724 455.464L324.458 456.143C325.362 455.166 326.272 454.2 327.188 453.243L326.466 452.551C328.307 450.63 330.173 448.748 332.066 446.905L332.764 447.621C333.717 446.693 334.678 445.774 335.645 444.865L334.96 444.136C336.904 442.308 338.874 440.519 340.87 438.767L341.53 439.519C342.524 438.647 343.524 437.785 344.53 436.932L343.884 436.169C345.919 434.444 347.98 432.758 350.066 431.108L350.686 431.892C351.726 431.07 352.771 430.257 353.823 429.453L353.216 428.659C355.33 427.043 357.469 425.464 359.632 423.92L360.213 424.734C361.292 423.964 362.377 423.203 363.467 422.451L362.9 421.628C365.09 420.117 367.304 418.641 369.543 417.198L370.085 418.039C371.197 417.322 372.315 416.614 373.439 415.913L372.91 415.064C375.165 413.659 377.444 412.287 379.745 410.946L380.249 411.81C381.395 411.141 382.548 410.481 383.706 409.828L383.215 408.957C385.524 407.656 387.856 406.384 390.211 405.142L390.677 406.027C391.849 405.408 393.027 404.797 394.21 404.193L393.755 403.303C396.12 402.095 398.507 400.916 400.915 399.764L401.347 400.666C402.538 400.096 403.735 399.532 404.938 398.975L404.517 398.068C406.929 396.951 409.361 395.86 411.813 394.794L412.212 395.711C413.426 395.184 414.645 394.662 415.869 394.147L415.481 393.225C417.92 392.198 420.38 391.195 422.858 390.214L423.226 391.144C424.462 390.655 425.702 390.172 426.948 389.694L426.59 388.761C429.061 387.813 431.551 386.886 434.059 385.981L434.398 386.922C435.643 386.472 436.893 386.028 438.147 385.589L437.816 384.645C440.327 383.765 442.856 382.906 445.401 382.066L445.715 383.015C446.966 382.602 448.221 382.194 449.48 381.79L449.175 380.838C451.699 380.028 454.239 379.236 456.796 378.462L457.086 379.419C458.361 379.032 459.641 378.65 460.925 378.272L460.642 377.313C463.175 376.567 465.723 375.836 468.287 375.121L468.555 376.085C469.833 375.728 471.114 375.376 472.399 375.026L472.137 374.061C474.702 373.365 477.28 372.683 479.874 372.014L480.123 372.983C481.401 372.653 482.682 372.327 483.967 372.004L483.723 371.035C486.296 370.388 488.883 369.754 491.483 369.132L491.716 370.104C493.014 369.794 494.315 369.486 495.62 369.181L495.393 368.207C497.962 367.607 500.545 367.018 503.14 366.439L503.357 367.415C504.653 367.125 505.952 366.839 507.254 366.554L507.041 365.577C509.637 365.011 512.246 364.453 514.866 363.905L515.071 364.884C516.364 364.613 517.659 364.345 518.958 364.079L518.757 363.099C521.356 362.566 523.967 362.041 526.588 361.524L526.782 362.505C528.092 362.246 529.404 361.99 530.719 361.735L530.529 360.753C533.122 360.251 535.726 359.755 538.34 359.265L538.524 360.248C539.829 360.004 541.136 359.761 542.446 359.519L542.265 358.536C544.882 358.053 547.51 357.576 550.147 357.104L550.323 358.088C551.623 357.855 552.925 357.624 554.23 357.393L554.056 356.408C556.667 355.947 559.287 355.49 561.917 355.037L562.086 356.022C563.4 355.796 564.716 355.57 566.035 355.345L565.867 354.36C568.477 353.914 571.097 353.472 573.724 353.033L573.889 354.019C575.197 353.801 576.508 353.582 577.82 353.365L577.656 352.378C580.282 351.943 582.916 351.509 585.557 351.077L585.719 352.064C587.027 351.85 588.338 351.637 589.651 351.423L589.491 350.436C592.105 350.011 594.726 349.587 597.355 349.164L597.514 350.151C598.828 349.939 600.144 349.727 601.462 349.516L601.303 348.528C603.926 348.107 606.556 347.686 609.193 347.264L609.351 348.251L613.281 347.623L613.123 346.635C613.417 346.588 613.711 346.541 614.006 346.494C616.336 346.121 618.671 345.748 621.011 345.373L621.17 346.36C622.488 346.149 623.807 345.938 625.128 345.726L624.97 344.739C627.584 344.319 630.204 343.898 632.829 343.474L632.989 344.461C634.3 344.25 635.613 344.037 636.928 343.824L636.768 342.837C639.397 342.411 642.031 341.982 644.671 341.55L644.832 342.536C646.141 342.322 647.45 342.107 648.761 341.891L648.598 340.904C651.215 340.473 653.836 340.038 656.462 339.599L656.627 340.585C657.941 340.365 659.256 340.145 660.572 339.923L660.405 338.936C663.026 338.495 665.651 338.048 668.281 337.596L668.45 338.582C669.757 338.357 671.066 338.131 672.376 337.904L672.205 336.919C674.823 336.464 677.445 336.005 680.071 335.539L680.246 336.524C681.56 336.291 682.874 336.056 684.19 335.82L684.014 334.836C686.623 334.368 689.236 333.894 691.853 333.413L692.034 334.396C693.341 334.156 694.649 333.914 695.958 333.67L695.775 332.687C698.392 332.2 701.012 331.705 703.635 331.203L703.823 332.185C705.129 331.935 706.436 331.684 707.744 331.43L707.554 330.448C710.157 329.943 712.763 329.43 715.373 328.909L715.568 329.889C716.874 329.629 718.18 329.366 719.487 329.101L719.288 328.12C721.897 327.591 724.507 327.054 727.121 326.507L727.326 327.486C728.624 327.214 729.923 326.94 731.223 326.664L731.015 325.686C733.613 325.134 736.213 324.573 738.815 324.001L739.03 324.978C740.332 324.692 741.634 324.404 742.938 324.113L742.72 323.137C745.312 322.558 747.907 321.97 750.503 321.371L750.728 322.345C752.022 322.046 753.317 321.745 754.613 321.441L754.384 320.467C756.973 319.86 759.563 319.241 762.154 318.612L762.39 319.584C763.688 319.268 764.985 318.951 766.283 318.63L766.043 317.659C768.617 317.023 771.192 316.375 773.768 315.715L774.016 316.684C775.305 316.354 776.594 316.021 777.883 315.685L777.631 314.717C780.207 314.046 782.783 313.363 785.361 312.667L785.621 313.632C786.206 313.475 786.79 313.316 787.374 313.157C787.997 313.224 788.618 313.292 789.238 313.361L789.348 312.367Z" stroke="#D9D9D9" stroke-opacity="0.09" stroke-width="2" stroke-dasharray="4 8"/>
<path d="M958.451 352.001C960.842 353.366 963.21 354.732 965.556 356.099L965.053 356.963C966.224 357.646 967.39 358.329 968.551 359.012L969.058 358.15C971.381 359.518 973.682 360.887 975.961 362.257L975.446 363.114C976.584 363.798 977.716 364.483 978.843 365.167L979.362 364.313C981.618 365.683 983.853 367.055 986.065 368.428L985.537 369.278C986.652 369.969 987.761 370.661 988.865 371.354L989.397 370.507C991.735 371.974 994.049 373.442 996.338 374.911L995.797 375.753C996.94 376.486 998.077 377.22 999.207 377.954L999.752 377.116C1002.02 378.586 1004.25 380.057 1006.47 381.53L1005.91 382.362C1007.02 383.097 1008.12 383.833 1009.21 384.569L1009.77 383.739C1011.96 385.212 1014.12 386.687 1016.26 388.162L1015.7 388.985C1016.79 389.741 1017.88 390.496 1018.96 391.252L1019.54 390.432C1021.8 392.01 1024.03 393.589 1026.23 395.169L1025.65 395.981C1026.75 396.77 1027.84 397.559 1028.93 398.348L1029.52 397.539C1031.69 399.121 1033.84 400.703 1035.96 402.286L1035.36 403.088C1036.42 403.878 1037.47 404.669 1038.52 405.46L1039.12 404.662C1041.23 406.256 1043.3 407.851 1045.35 409.446L1044.74 410.235C1045.83 411.082 1046.91 411.928 1047.98 412.775L1048.6 411.99C1050.74 413.687 1052.86 415.385 1054.94 417.084L1054.31 417.859C1055.35 418.707 1056.38 419.556 1057.41 420.404L1058.05 419.634C1060.1 421.334 1062.12 423.036 1064.12 424.739L1063.47 425.5C1064.46 426.349 1065.45 427.199 1066.43 428.05L1067.08 427.295C1069.14 429.084 1071.17 430.875 1073.16 432.668L1072.5 433.411C1073.51 434.32 1074.51 435.23 1075.5 436.139L1076.18 435.402C1078.17 437.225 1080.13 439.05 1082.05 440.876L1081.36 441.601C1082.32 442.512 1083.28 443.424 1084.22 444.335L1084.91 443.616C1086.82 445.461 1088.7 447.308 1090.54 449.155L1089.83 449.861C1090.79 450.833 1091.75 451.806 1092.7 452.78L1093.42 452.081C1095.32 454.033 1097.19 455.986 1099.02 457.941L1098.28 458.624C1099.2 459.599 1100.1 460.574 1100.99 461.549L1101.73 460.874C1103.52 462.831 1105.27 464.788 1106.99 466.748L1106.23 467.407C1107.12 468.416 1107.99 469.425 1108.86 470.435L1109.62 469.785C1111.4 471.868 1113.14 473.952 1114.84 476.038L1114.06 476.67C1114.91 477.709 1115.74 478.75 1116.57 479.79L1117.35 479.169C1119.01 481.256 1120.62 483.346 1122.2 485.437L1121.4 486.038C1122.19 487.091 1122.98 488.144 1123.75 489.197L1124.55 488.606C1126.18 490.818 1127.75 493.033 1129.28 495.249L1128.46 495.817C1129.22 496.921 1129.98 498.026 1130.72 499.131L1131.55 498.574C1133.03 500.792 1134.48 503.012 1135.87 505.234L1135.03 505.766C1135.73 506.882 1136.42 507.998 1137.1 509.114L1137.95 508.594C1139.37 510.93 1140.75 513.268 1142.07 515.609L1141.2 516.101C1141.86 517.267 1142.51 518.433 1143.15 519.599L1144.02 519.12C1145.3 521.463 1146.53 523.807 1147.71 526.153L1146.82 526.603C1147.42 527.792 1148.01 528.982 1148.58 530.173L1149.48 529.738C1150.66 532.186 1151.8 534.636 1152.88 537.088L1151.96 537.492C1152.5 538.712 1153.02 539.933 1153.54 541.155L1154.46 540.768C1155.49 543.222 1156.47 545.679 1157.4 548.137L1156.47 548.491C1156.94 549.753 1157.41 551.015 1157.86 552.278L1158.8 551.941C1159.71 554.483 1160.56 557.027 1161.37 559.574L1160.41 559.875C1160.81 561.142 1161.2 562.409 1161.58 563.678L1162.53 563.395C1163.29 565.961 1164 568.53 1164.65 571.101L1163.68 571.347C1164.01 572.646 1164.33 573.946 1164.63 575.246L1165.6 575.019C1166.21 577.632 1166.77 580.247 1167.28 582.864L1166.29 583.053C1166.54 584.356 1166.78 585.659 1167.01 586.962L1167.99 586.792C1168.45 589.434 1168.85 592.078 1169.2 594.725L1168.21 594.856C1168.39 596.178 1168.55 597.5 1168.7 598.822L1169.69 598.71C1169.99 601.368 1170.24 604.028 1170.44 606.69L1169.44 606.763C1169.54 608.088 1169.62 609.414 1169.69 610.741L1170.69 610.686C1170.84 613.356 1170.93 616.027 1170.97 618.7L1169.97 618.717C1170 620.047 1170 621.378 1170 622.709L1171 622.712C1170.99 625.386 1170.94 628.062 1170.83 630.74L1169.83 630.7C1169.78 632.024 1169.71 633.348 1169.63 634.673L1170.63 634.732C1170.48 637.394 1170.27 640.058 1170.02 642.724L1169.03 642.63C1168.9 643.957 1168.76 645.284 1168.61 646.613L1169.61 646.724C1169.31 649.372 1168.97 652.021 1168.58 654.673L1167.59 654.528C1167.4 655.838 1167.19 657.149 1166.98 658.46L1167.96 658.622C1167.53 661.255 1167.06 663.89 1166.54 666.527L1165.55 666.333C1165.29 667.646 1165.02 668.96 1164.74 670.274L1165.72 670.484C1165.17 673.073 1164.57 675.664 1163.93 678.257L1162.96 678.018C1162.64 679.306 1162.31 680.595 1161.98 681.884L1162.94 682.137C1162.26 684.725 1161.54 687.315 1160.78 689.906L1159.82 689.624C1159.45 690.901 1159.06 692.179 1158.67 693.458L1159.63 693.753C1158.85 696.279 1158.03 698.806 1157.17 701.335L1156.23 701.014C1155.8 702.275 1155.36 703.535 1154.92 704.796L1155.86 705.129C1154.97 707.659 1154.04 710.191 1153.07 712.724L1152.14 712.368C1151.67 713.597 1151.19 714.827 1150.7 716.058L1151.63 716.426C1150.66 718.887 1149.65 721.35 1148.61 723.814L1147.69 723.425C1147.17 724.653 1146.64 725.882 1146.1 727.111L1147.02 727.511C1145.95 729.967 1144.84 732.425 1143.71 734.884L1142.8 734.464C1142.25 735.657 1141.69 736.85 1141.12 738.043L1142.02 738.473C1140.88 740.866 1139.71 743.261 1138.52 745.656L1137.62 745.209C1137.02 746.404 1136.42 747.599 1135.8 748.795L1136.69 749.251C1135.47 751.633 1134.22 754.015 1132.94 756.399L1132.06 755.926C1131.44 757.085 1130.81 758.244 1130.17 759.404L1131.05 759.885C1129.77 762.209 1128.47 764.535 1127.14 766.862L1126.27 766.365C1125.61 767.526 1124.94 768.687 1124.26 769.848L1125.13 770.352C1123.78 772.666 1122.4 774.981 1121 777.297L1120.14 776.779C1119.46 777.905 1118.78 779.031 1118.08 780.157L1118.93 780.681C1117.54 782.938 1116.13 785.195 1114.69 787.454L1113.85 786.917C1113.13 788.044 1112.4 789.172 1111.67 790.299L1112.51 790.843C1111.05 793.097 1109.57 795.352 1108.06 797.609L1107.23 797.053C1106.5 798.147 1105.77 799.241 1105.03 800.335L1105.85 800.896C1104.37 803.087 1102.86 805.28 1101.33 807.473L1100.51 806.901C1099.75 807.996 1098.98 809.091 1098.21 810.186L1099.02 810.763C1097.47 812.958 1095.9 815.153 1094.31 817.348L1093.5 816.761C1092.72 817.834 1091.94 818.906 1091.15 819.979L1091.96 820.571C1090.39 822.701 1088.81 824.832 1087.21 826.963L1086.41 826.362C1085.61 827.427 1084.8 828.491 1083.99 829.556L1084.79 830.161C1083.16 832.293 1081.52 834.426 1079.86 836.56L1079.07 835.946C1078.25 837.009 1077.42 838.072 1076.58 839.135L1077.37 839.753C1075.74 841.826 1074.09 843.899 1072.42 845.972L1071.64 845.346C1070.81 846.382 1069.98 847.418 1069.14 848.454L1069.91 849.083C1068.23 851.158 1066.53 853.233 1064.82 855.308L1064.04 854.671C1063.19 855.708 1062.33 856.745 1061.46 857.782L1062.23 858.422C1060.53 860.463 1058.81 862.504 1057.07 864.545L1056.31 863.898C1055.45 864.907 1054.59 865.916 1053.73 866.925L1054.49 867.576C1052.76 869.597 1051.01 871.618 1049.25 873.64L1048.49 872.983C1047.61 873.993 1046.73 875.003 1045.84 876.013L1046.59 876.673C1044.82 878.69 1043.03 880.707 1041.23 882.724L1040.49 882.058C1039.61 883.043 1038.73 884.028 1037.84 885.012L1038.58 885.681C1036.81 887.653 1035.02 889.625 1033.22 891.597L1032.48 890.923C1031.58 891.909 1030.68 892.894 1029.77 893.88L1030.51 894.557C1028.7 896.53 1026.87 898.503 1025.03 900.478L1024.3 899.796C1023.38 900.781 1022.46 901.767 1021.53 902.753L1022.26 903.437C1020.45 905.364 1018.63 907.291 1016.8 909.219L1016.07 908.529C1015.16 909.492 1014.24 910.456 1013.32 911.419L1014.04 912.11C1012.19 914.038 1010.34 915.967 1008.47 917.896L1007.75 917.2C1006.82 918.164 1005.88 919.127 1004.94 920.091L1005.66 920.789C1003.79 922.705 1001.91 924.621 1000.02 926.537L999.309 925.835C998.379 926.777 997.447 927.72 996.512 928.663L997.222 929.367C995.351 931.255 993.469 933.142 991.576 935.03L990.87 934.322C989.924 935.265 988.976 936.209 988.025 937.152L988.729 937.862C986.826 939.75 984.913 941.639 982.989 943.528L982.288 942.815C981.329 943.757 980.366 944.699 979.402 945.642L980.1 946.357C978.207 948.207 976.303 950.058 974.39 951.909L973.695 951.19C972.739 952.115 971.78 953.04 970.82 953.965L971.513 954.686C969.591 956.537 967.659 958.389 965.718 960.241L965.028 959.517C964.058 960.443 963.085 961.368 962.111 962.294L962.8 963.019C960.856 964.865 958.904 966.711 956.943 968.557L956.257 967.829C955.293 968.738 954.326 969.646 953.356 970.555L954.04 971.285C952.101 973.103 950.153 974.921 948.198 976.74L947.517 976.008C946.539 976.917 945.56 977.826 944.578 978.735L945.258 979.469C943.294 981.288 941.322 983.107 939.342 984.927L938.665 984.19C937.675 985.1 936.684 986.009 935.691 986.919L936.366 987.656C934.403 989.453 932.433 991.25 930.456 993.047L929.783 992.307C928.799 993.201 927.813 994.095 926.826 994.99L927.497 995.731C925.521 997.521 923.537 999.31 921.547 1001.1L920.878 1000.36C919.883 1001.25 918.886 1002.15 917.888 1003.04L918.556 1003.79C916.558 1005.58 914.553 1007.37 912.542 1009.16L911.877 1008.41C911.374 1008.86 910.871 1009.31 910.368 1009.75L910.34 1009.78L910.314 1009.8C909.829 1010.31 909.344 1010.8 908.86 1011.3L909.577 1012C907.64 1013.99 905.714 1015.97 903.799 1017.92L903.085 1017.22C902.128 1018.19 901.174 1019.16 900.222 1020.13L900.935 1020.83C899.031 1022.76 897.137 1024.68 895.255 1026.57L894.546 1025.86C893.605 1026.81 892.667 1027.75 891.732 1028.68L892.439 1029.39C890.567 1031.26 888.706 1033.11 886.856 1034.94L886.153 1034.23C885.228 1035.15 884.306 1036.06 883.387 1036.96L884.088 1037.67C882.177 1039.56 880.278 1041.41 878.39 1043.25L877.692 1042.54C876.699 1043.5 875.709 1044.46 874.722 1045.42L875.417 1046.14C873.442 1048.05 871.479 1049.94 869.529 1051.8L868.838 1051.08C867.863 1052.01 866.892 1052.94 865.923 1053.86L866.612 1054.58C864.673 1056.42 862.747 1058.24 860.833 1060.03L860.149 1059.31C859.192 1060.2 858.239 1061.09 857.289 1061.98L857.97 1062.71C856.062 1064.49 854.165 1066.24 852.281 1067.97L851.604 1067.24C850.575 1068.18 849.55 1069.12 848.528 1070.05L849.201 1070.79C847.155 1072.66 845.123 1074.49 843.105 1076.3L842.438 1075.56C841.43 1076.46 840.425 1077.36 839.424 1078.25L840.089 1079C838.085 1080.78 836.094 1082.54 834.118 1084.27L833.459 1083.52C832.472 1084.38 831.488 1085.24 830.507 1086.09L831.163 1086.85C829.183 1088.56 827.218 1090.25 825.265 1091.92L824.617 1091.16C823.553 1092.06 822.494 1092.96 821.438 1093.85L822.083 1094.61C819.97 1096.4 817.872 1098.15 815.79 1099.87L815.153 1099.1C814.114 1099.96 813.078 1100.81 812.046 1101.65L812.679 1102.42C810.613 1104.11 808.563 1105.77 806.527 1107.4L805.903 1106.61C804.887 1107.43 803.874 1108.23 802.866 1109.03L803.486 1109.81C801.355 1111.5 799.24 1113.14 797.143 1114.76L796.533 1113.97C795.438 1114.81 794.349 1115.64 793.263 1116.47L793.868 1117.26C791.694 1118.91 789.538 1120.53 787.399 1122.11L786.806 1121.3C785.738 1122.09 784.675 1122.87 783.617 1123.64L784.205 1124.45C782.084 1125.99 779.98 1127.49 777.894 1128.96L777.318 1128.14C776.197 1128.93 775.081 1129.71 773.97 1130.48L774.539 1131.3C772.255 1132.88 769.992 1134.42 767.749 1135.92L767.194 1135.09C766.075 1135.83 764.961 1136.57 763.852 1137.29L764.399 1138.13C762.176 1139.58 759.972 1140.99 757.789 1142.36L757.258 1141.51C756.159 1142.2 755.065 1142.88 753.976 1143.55L754.498 1144.4C752.107 1145.86 749.74 1147.28 747.395 1148.64L746.892 1147.78C745.723 1148.46 744.56 1149.13 743.402 1149.78L743.895 1150.65C741.573 1151.97 739.274 1153.23 736.996 1154.45L736.525 1153.57C735.382 1154.18 734.244 1154.78 733.112 1155.36L733.572 1156.25C731.084 1157.54 728.623 1158.77 726.187 1159.94L725.754 1159.04C724.54 1159.62 723.333 1160.19 722.132 1160.75L722.552 1161.65C720.141 1162.77 717.755 1163.83 715.394 1164.83L715.003 1163.91C713.757 1164.43 712.518 1164.95 711.285 1165.44L711.659 1166.37C709.095 1167.4 706.559 1168.37 704.05 1169.27L703.712 1168.33C702.464 1168.78 701.223 1169.21 699.988 1169.63L700.308 1170.58C697.756 1171.44 695.232 1172.23 692.736 1172.95L692.457 1171.99C691.144 1172.37 689.838 1172.74 688.54 1173.08L688.796 1174.05C686.185 1174.74 683.602 1175.36 681.049 1175.9L680.84 1174.93C679.564 1175.2 678.295 1175.45 677.034 1175.69L677.218 1176.67C674.505 1177.18 671.824 1177.61 669.172 1177.96L669.043 1176.96C667.727 1177.14 666.418 1177.29 665.116 1177.42L665.217 1178.42C662.536 1178.69 659.884 1178.88 657.261 1178.99L657.219 1177.99C655.876 1178.05 654.54 1178.08 653.212 1178.09L653.223 1179.09C650.545 1179.12 647.897 1179.07 645.276 1178.93L645.328 1177.93C643.992 1177.86 642.664 1177.77 641.342 1177.66L641.258 1178.65C638.574 1178.43 635.919 1178.11 633.289 1177.72L633.438 1176.73C632.134 1176.53 630.835 1176.31 629.543 1176.07L629.362 1177.06C626.725 1176.57 624.112 1176 621.522 1175.35L621.765 1174.38C620.479 1174.06 619.199 1173.72 617.924 1173.36L617.651 1174.32C615.088 1173.59 612.547 1172.78 610.025 1171.9L610.355 1170.96C609.107 1170.52 607.863 1170.07 606.623 1169.59L606.266 1170.53C603.774 1169.57 601.299 1168.55 598.839 1167.45L599.246 1166.54C598.047 1166 596.851 1165.45 595.659 1164.88L595.229 1165.78C592.829 1164.64 590.442 1163.43 588.067 1162.16L588.54 1161.27C587.367 1160.64 586.198 1160 585.03 1159.34L584.538 1160.21C582.246 1158.91 579.963 1157.56 577.688 1156.15L578.215 1155.3C577.083 1154.6 575.953 1153.88 574.824 1153.15L574.281 1153.99C572.062 1152.55 569.849 1151.07 567.64 1149.53L568.211 1148.71C567.129 1147.95 566.047 1147.19 564.966 1146.41L564.382 1147.22C562.211 1145.66 560.044 1144.05 557.878 1142.4L558.485 1141.6C557.447 1140.81 556.408 1140 555.37 1139.19L554.753 1139.98C552.674 1138.35 550.596 1136.68 548.518 1134.97L549.153 1134.2C548.116 1133.34 547.079 1132.48 546.041 1131.61L545.398 1132.38C543.383 1130.68 541.366 1128.95 539.345 1127.19L540.002 1126.44C539.004 1125.57 538.005 1124.69 537.005 1123.8L536.341 1124.55C534.337 1122.78 532.329 1120.97 530.315 1119.13L530.99 1118.39C530.023 1117.51 529.055 1116.62 528.085 1115.72L527.406 1116.45C525.468 1114.66 523.524 1112.84 521.574 1110.99L522.261 1110.27C521.287 1109.35 520.311 1108.42 519.333 1107.48L518.643 1108.21C516.729 1106.38 514.808 1104.53 512.879 1102.65L513.576 1101.93C512.629 1101.01 511.679 1100.09 510.727 1099.16L510.027 1099.87C508.122 1098.01 506.208 1096.12 504.284 1094.22L504.988 1093.5C504.033 1092.56 503.076 1091.61 502.117 1090.66L501.411 1091.36C499.549 1089.51 497.676 1087.64 495.793 1085.75L496.501 1085.05C495.56 1084.1 494.616 1083.16 493.67 1082.21L492.961 1082.91C491.069 1081.01 489.165 1079.09 487.249 1077.16L487.959 1076.46C487.034 1075.53 486.106 1074.59 485.176 1073.65L484.465 1074.36C483.59 1073.47 482.712 1072.59 481.832 1071.7C480.84 1070.7 479.844 1069.69 478.845 1068.68L479.555 1067.98C478.612 1067.03 477.666 1066.07 476.716 1065.12L476.006 1065.82C474.129 1063.93 472.239 1062.03 470.335 1060.11L471.044 1059.41C470.112 1058.47 469.178 1057.53 468.239 1056.59L467.531 1057.3C465.656 1055.42 463.767 1053.53 461.864 1051.63L462.57 1050.92C461.618 1049.98 460.662 1049.03 459.703 1048.07L458.998 1048.78C457.115 1046.91 455.218 1045.03 453.305 1043.15L454.007 1042.44C453.722 1042.16 453.436 1041.88 453.149 1041.59C452.49 1040.95 451.828 1040.3 451.164 1039.65L450.464 1040.36C448.563 1038.5 446.647 1036.63 444.715 1034.75L445.411 1034.03C444.444 1033.1 443.474 1032.16 442.499 1031.22L441.805 1031.94C439.899 1030.1 437.978 1028.26 436.041 1026.41L436.731 1025.69C435.769 1024.77 434.804 1023.86 433.835 1022.94L433.147 1023.67C431.21 1021.84 429.258 1020 427.288 1018.16L427.97 1017.43C426.984 1016.51 425.994 1015.59 425 1014.68L424.321 1015.41C422.379 1013.61 420.421 1011.82 418.445 1010.02L419.119 1009.28C418.136 1008.38 417.15 1007.49 416.159 1006.59L415.489 1007.34C413.509 1005.55 411.512 1003.76 409.498 1001.98L410.161 1001.23C409.153 1000.33 408.14 999.44 407.123 998.547L406.463 999.298C404.474 997.551 402.468 995.805 400.445 994.06L401.098 993.303C400.649 992.916 400.2 992.53 399.75 992.144C399.19 991.663 398.629 991.183 398.066 990.703L397.417 991.463C395.389 989.733 393.344 988.005 391.28 986.28L391.922 985.513C390.889 984.649 389.851 983.786 388.808 982.923L388.171 983.694C386.127 982.003 384.064 980.315 381.984 978.631L382.613 977.854C381.581 977.019 380.546 976.186 379.505 975.353L378.88 976.134C376.802 974.47 374.705 972.811 372.59 971.157L373.206 970.369C372.147 969.54 371.082 968.713 370.014 967.887L369.402 968.678C367.295 967.05 365.168 965.426 363.023 963.807L363.625 963.009C362.568 962.212 361.506 961.416 360.44 960.621L359.843 961.423C357.713 959.836 355.564 958.255 353.396 956.68L353.984 955.871C353.433 955.47 352.88 955.07 352.326 954.67C351.79 954.283 351.252 953.896 350.713 953.509L350.13 954.322C347.952 952.76 345.755 951.205 343.538 949.656L344.11 948.836C343.028 948.081 341.941 947.327 340.85 946.574L340.282 947.398C338.102 945.895 335.903 944.4 333.685 942.912L334.242 942.081C333.804 941.788 333.366 941.495 332.928 941.203C332.251 940.752 331.573 940.301 330.894 939.852L330.342 940.686C328.104 939.206 325.846 937.733 323.568 936.269L324.108 935.428C323.537 935.061 322.965 934.695 322.392 934.329C321.814 933.96 321.236 933.591 320.66 933.222L320.121 934.064C317.815 932.588 315.53 931.114 313.266 929.642L313.811 928.803C313.197 928.404 312.584 928.004 311.972 927.605C311.458 927.27 310.946 926.935 310.434 926.6L309.886 927.436C307.643 925.967 305.42 924.5 303.218 923.035L303.772 922.203C302.672 921.471 301.578 920.74 300.488 920.01L299.931 920.84C297.75 919.378 295.589 917.918 293.449 916.461L294.012 915.634C292.943 914.906 291.879 914.179 290.82 913.452L290.254 914.276C288.012 912.737 285.792 911.2 283.595 909.667L284.168 908.847C283.056 908.07 281.949 907.294 280.848 906.518L280.272 907.336C278.068 905.784 275.888 904.234 273.73 902.687L274.313 901.874C273.235 901.101 272.163 900.329 271.097 899.558L270.511 900.368C268.376 898.823 266.265 897.282 264.176 895.742L264.769 894.937C263.726 894.169 262.688 893.401 261.656 892.633L261.06 893.436C258.89 891.822 256.745 890.211 254.625 888.603L255.23 887.806C254.147 886.985 253.072 886.165 252.002 885.346L251.394 886.139C249.253 884.499 247.138 882.861 245.048 881.226L245.664 880.438C244.621 879.622 243.584 878.806 242.553 877.991L241.933 878.775C239.869 877.143 237.831 875.514 235.818 873.888L236.447 873.11C236.048 872.789 235.651 872.467 235.255 872.146C234.651 871.656 234.05 871.166 233.45 870.677L232.818 871.451C230.7 869.721 228.611 867.995 226.55 866.271L227.192 865.504C226.154 864.637 225.124 863.77 224.101 862.904L223.455 863.667C221.406 861.933 219.386 860.202 217.395 858.474L218.05 857.719C217.556 857.29 217.064 856.862 216.573 856.434C216.077 856 215.582 855.567 215.089 855.134L214.429 855.885C212.466 854.16 210.532 852.439 208.626 850.721L209.296 849.978C208.29 849.072 207.293 848.167 206.303 847.262L205.629 848.001C203.612 846.158 201.628 844.318 199.676 842.482L200.361 841.754C199.387 840.838 198.42 839.923 197.462 839.008L196.772 839.732C194.852 837.9 192.964 836.071 191.108 834.247L191.809 833.534C190.883 832.623 189.965 831.713 189.055 830.805L188.348 831.512C186.435 829.602 184.556 827.696 182.712 825.794L183.43 825.098C182.487 824.125 181.554 823.154 180.629 822.184L179.905 822.874C178.052 820.929 176.235 818.988 174.453 817.052L175.189 816.375C174.3 815.409 173.42 814.444 172.549 813.48L171.807 814.15C170.036 812.19 168.302 810.235 166.604 808.284L167.358 807.627C166.462 806.597 165.575 805.568 164.699 804.54L163.938 805.189C162.181 803.128 160.464 801.072 158.786 799.021L159.561 798.388C158.724 797.364 157.898 796.342 157.081 795.322L156.3 795.946C154.662 793.899 153.064 791.856 151.504 789.818L152.298 789.21C151.47 788.128 150.653 787.046 149.847 785.966L149.045 786.565C147.42 784.387 145.839 782.215 144.302 780.047L145.117 779.469C144.817 779.046 144.518 778.622 144.222 778.199C143.761 777.543 143.304 776.887 142.851 776.232L142.028 776.8C140.535 774.637 139.085 772.48 137.678 770.327L138.515 769.78C137.772 768.643 137.041 767.508 136.322 766.375L135.478 766.91C134.025 764.619 132.621 762.334 131.265 760.054L132.125 759.543C131.449 758.407 130.786 757.273 130.134 756.14L129.267 756.639C127.949 754.348 126.68 752.062 125.457 749.782L126.339 749.31C125.698 748.114 125.07 746.919 124.455 745.726L123.566 746.184C122.331 743.788 121.149 741.399 120.017 739.014L120.921 738.586C120.358 737.399 119.807 736.213 119.27 735.029L118.359 735.442C117.253 733.007 116.201 730.577 115.201 728.153L116.125 727.771C115.614 726.531 115.116 725.291 114.631 724.053L113.7 724.418C112.727 721.931 111.809 719.45 110.946 716.975L111.89 716.646C111.46 715.414 111.044 714.184 110.642 712.956L109.691 713.267C108.849 710.698 108.065 708.134 107.337 705.578L108.299 705.304C107.936 704.028 107.588 702.753 107.253 701.48L106.286 701.734C105.614 699.175 104.999 696.623 104.439 694.076L105.416 693.861C105.128 692.552 104.855 691.244 104.597 689.938L103.616 690.132C103.097 687.505 102.638 684.885 102.236 682.271L103.224 682.119C103.024 680.819 102.839 679.521 102.668 678.224L101.676 678.355C101.327 675.708 101.037 673.067 100.804 670.433L101.8 670.345C101.684 669.025 101.582 667.706 101.494 666.389L100.496 666.455C100.321 663.806 100.203 661.164 100.142 658.528L101.142 658.505C101.111 657.182 101.095 655.861 101.093 654.541L100.093 654.542C100.089 651.879 100.142 649.223 100.252 646.572L101.251 646.613C101.306 645.295 101.374 643.978 101.457 642.663L100.459 642.601C100.625 639.952 100.846 637.309 101.123 634.672L102.117 634.776C102.255 633.463 102.406 632.151 102.57 630.841L101.578 630.716C101.909 628.082 102.293 625.454 102.73 622.831L103.716 622.995C103.933 621.696 104.162 620.397 104.405 619.1L103.421 618.917C103.908 616.314 104.445 613.717 105.032 611.126L106.007 611.347C106.299 610.057 106.604 608.769 106.921 607.481L105.95 607.242C106.582 604.675 107.263 602.112 107.991 599.554L108.953 599.828C109.313 598.561 109.685 597.296 110.069 596.032L109.112 595.741C109.882 593.202 110.699 590.668 111.56 588.138L112.507 588.46C112.931 587.213 113.367 585.966 113.814 584.721L112.872 584.383C113.762 581.902 114.694 579.425 115.668 576.953L116.598 577.319C117.083 576.087 117.579 574.857 118.084 573.627L117.159 573.247C118.165 570.801 119.211 568.359 120.295 565.922L121.209 566.328C121.743 565.128 122.286 563.929 122.839 562.73L121.931 562.311C123.041 559.906 124.187 557.505 125.371 555.107L126.267 555.55C126.856 554.357 127.453 553.166 128.059 551.975L127.168 551.521C128.36 549.182 129.585 546.846 130.843 544.513L131.724 544.988C132.351 543.825 132.987 542.662 133.63 541.501L132.756 541.016C134.044 538.692 135.364 536.372 136.716 534.054L137.58 534.558C138.239 533.427 138.907 532.297 139.581 531.167L138.723 530.654C140.076 528.389 141.458 526.126 142.869 523.866L143.717 524.396C144.42 523.269 145.131 522.142 145.849 521.016L145.006 520.479C146.425 518.253 147.87 516.031 149.343 513.811L150.176 514.363C150.904 513.266 151.637 512.17 152.378 511.074L151.549 510.514C153.033 508.318 154.542 506.124 156.075 503.932L156.895 504.505C157.658 503.413 158.428 502.322 159.204 501.231L158.389 500.651C159.912 498.511 161.457 496.374 163.023 494.238L163.83 494.83C164.612 493.764 165.399 492.698 166.192 491.633L165.39 491.036C166.979 488.902 168.589 486.771 170.22 484.641L171.014 485.249C171.814 484.205 172.619 483.161 173.428 482.117L172.638 481.504C174.254 479.422 175.889 477.341 177.543 475.262L178.326 475.885C178.641 475.488 178.958 475.091 179.275 474.694C179.787 474.053 180.301 473.412 180.817 472.772L180.038 472.145C181.702 470.077 183.385 468.01 185.084 465.946L185.856 466.581C186.692 465.566 187.532 464.551 188.376 463.536L187.608 462.897C189.298 460.864 191.005 458.834 192.727 456.804L193.49 457.451C194.35 456.438 195.214 455.425 196.082 454.412L195.322 453.761C197.045 451.751 198.782 449.742 200.534 447.734L201.287 448.392C202.154 447.398 203.025 446.404 203.899 445.411L203.148 444.751C204.897 442.762 206.66 440.774 208.436 438.788L209.182 439.454C210.069 438.462 210.959 437.47 211.853 436.478L211.11 435.808C212.879 433.845 214.659 431.882 216.452 429.92L217.19 430.595C218.081 429.619 218.976 428.644 219.873 427.669L219.137 426.992C220.932 425.04 222.739 423.088 224.556 421.137L225.288 421.819C226.196 420.844 227.106 419.87 228.019 418.896L227.289 418.212C229.095 416.285 230.91 414.359 232.735 412.433L233.461 413.121C234.371 412.16 235.284 411.199 236.198 410.239L235.474 409.549C237.305 407.627 239.145 405.705 240.992 403.784L241.713 404.477C242.015 404.163 242.318 403.848 242.62 403.534C243.242 402.889 243.865 402.243 244.488 401.598L243.769 400.903C245.604 399.003 247.447 397.104 249.296 395.205L250.013 395.903C250.937 394.954 251.863 394.005 252.791 393.056L252.076 392.357C253.933 390.458 255.796 388.559 257.666 386.661L258.378 387.362C259.311 386.415 260.245 385.468 261.18 384.522L260.469 383.819C262.328 381.937 264.192 380.055 266.062 378.173L266.771 378.878C267.706 377.938 268.642 376.997 269.579 376.056L268.87 375.351C270.745 373.469 272.624 371.587 274.508 369.705L275.214 370.413C276.154 369.474 277.094 368.536 278.035 367.597L277.329 366.889C279.204 365.019 281.084 363.149 282.966 361.278L283.671 361.987C284.612 361.052 285.554 360.117 286.497 359.182L285.792 358.472C287.678 356.601 289.566 354.73 291.456 352.859L292.16 353.569L293.578 352.166C294.062 351.687 294.547 351.21 295.032 350.736L294.332 350.021C296.277 348.117 298.227 346.251 300.181 344.421L300.865 345.152C301.839 344.239 302.815 343.336 303.792 342.442L303.117 341.704C305.076 339.911 307.04 338.154 309.009 336.433L309.667 337.186C310.682 336.299 311.699 335.421 312.716 334.553L312.067 333.792C314.129 332.033 316.196 330.313 318.268 328.631L318.898 329.407C319.931 328.568 320.965 327.74 322 326.92L321.38 326.136C323.468 324.483 325.563 322.868 327.662 321.29L328.263 322.09C329.344 321.278 330.427 320.475 331.511 319.683L330.921 318.875C333.096 317.285 335.277 315.735 337.464 314.224L338.033 315.047C339.122 314.294 340.213 313.551 341.306 312.817L340.749 311.987C342.978 310.491 345.212 309.034 347.453 307.618L347.988 308.463C349.122 307.745 350.259 307.038 351.396 306.341L350.874 305.488C353.157 304.089 355.447 302.73 357.742 301.41L358.241 302.277C359.385 301.62 360.53 300.972 361.677 300.335L361.191 299.461C363.551 298.148 365.917 296.877 368.29 295.646L368.751 296.534C369.935 295.92 371.12 295.316 372.307 294.722L371.86 293.828C374.243 292.635 376.632 291.483 379.028 290.371L379.45 291.278C380.665 290.713 381.882 290.159 383.101 289.614L382.693 288.701C385.144 287.607 387.602 286.553 390.067 285.538L390.448 286.463C391.675 285.957 392.905 285.462 394.136 284.976L393.769 284.046C396.258 283.064 398.754 282.122 401.256 281.219L401.596 282.159C402.851 281.706 404.107 281.263 405.366 280.83L405.04 279.884C407.566 279.014 410.099 278.183 412.64 277.39L412.938 278.344C414.205 277.948 415.474 277.562 416.746 277.185L416.461 276.226C419.027 275.465 421.601 274.743 424.181 274.057L424.438 275.023C425.723 274.682 427.011 274.349 428.3 274.026L428.057 273.056C430.646 272.407 433.242 271.795 435.845 271.219L436.061 272.195C437.36 271.907 438.66 271.629 439.963 271.359L439.76 270.38C442.374 269.838 444.995 269.332 447.624 268.861L447.8 269.845C449.11 269.61 450.422 269.383 451.735 269.166L451.572 268.179C454.201 267.743 456.837 267.341 459.48 266.972L459.618 267.962C460.935 267.778 462.254 267.602 463.574 267.435L463.448 266.443C466.097 266.106 468.754 265.803 471.418 265.53L471.519 266.525C472.839 266.39 474.16 266.263 475.483 266.144L475.393 265.148C478.045 264.908 480.704 264.699 483.37 264.52L483.437 265.518C484.766 265.429 486.097 265.347 487.43 265.273L487.374 264.274C490.033 264.125 492.698 264.006 495.371 263.914L495.405 264.913C496.731 264.868 498.059 264.829 499.389 264.798L499.365 263.798C502.031 263.734 504.705 263.698 507.386 263.689L507.389 264.689C508.723 264.684 510.059 264.685 511.396 264.694L511.402 263.694C514.055 263.71 516.715 263.752 519.381 263.818L519.357 264.818C520.687 264.851 522.019 264.89 523.353 264.935L523.387 263.935C526.056 264.026 528.731 264.14 531.414 264.278L531.363 265.277C532.684 265.344 534.007 265.418 535.331 265.497L535.391 264.499C538.045 264.657 540.707 264.837 543.375 265.039L543.3 266.036C544.631 266.137 545.965 266.243 547.3 266.355L547.383 265.358C550.032 265.579 552.687 265.82 555.349 266.082L555.251 267.077C556.572 267.207 557.894 267.341 559.218 267.48L559.323 266.486C561.975 266.765 564.634 267.063 567.3 267.38L567.182 268.373C568.509 268.531 569.839 268.693 571.169 268.86L571.294 267.868C573.922 268.197 576.556 268.544 579.197 268.907L579.061 269.898C580.379 270.08 581.7 270.265 583.021 270.455L583.164 269.465C585.811 269.845 588.465 270.242 591.125 270.654L590.972 271.642C592.279 271.845 593.588 272.051 594.898 272.261L595.056 271.273C597.678 271.694 600.306 272.129 602.941 272.578L602.773 273.563C604.088 273.788 605.406 274.016 606.725 274.247L606.897 273.262C609.523 273.722 612.155 274.196 614.793 274.683L614.611 275.666C615.914 275.907 617.219 276.15 618.526 276.397L618.711 275.414C621.326 275.908 623.948 276.415 626.576 276.932L626.382 277.914C627.695 278.172 629.009 278.434 630.325 278.698L630.522 277.718C633.127 278.242 635.738 278.776 638.355 279.322L638.151 280.301C639.451 280.571 640.753 280.845 642.057 281.121L642.264 280.142C644.873 280.695 647.488 281.257 650.108 281.829L649.895 282.806C651.205 283.092 652.516 283.38 653.828 283.67L654.044 282.694C656.632 283.266 659.226 283.847 661.825 284.437L661.604 285.412C662.902 285.706 664.201 286.003 665.502 286.301L665.725 285.326C668.329 285.923 670.938 286.528 673.552 287.14L673.324 288.114C674.624 288.418 675.925 288.724 677.228 289.032L677.458 288.059C680.039 288.669 682.626 289.286 685.219 289.909L684.985 290.882C686.281 291.193 687.578 291.506 688.877 291.82L689.113 290.849C691.711 291.478 694.315 292.113 696.925 292.754L696.687 293.725C697.978 294.042 699.27 294.36 700.563 294.679L700.803 293.708C703.381 294.345 705.966 294.987 708.555 295.633L708.313 296.603C709.608 296.926 710.904 297.25 712.201 297.575L712.444 296.605C715.039 297.255 717.639 297.909 720.244 298.567L719.999 299.537C721.285 299.862 722.572 300.187 723.861 300.513L724.106 299.544C726.683 300.197 729.266 300.853 731.854 301.512L731.608 302.481C732.902 302.81 734.197 303.14 735.494 303.471L735.741 302.502C738.33 303.162 740.925 303.824 743.525 304.489L743.277 305.458C744.563 305.787 745.851 306.116 747.14 306.445L747.387 305.477C748.795 305.837 750.204 306.197 751.615 306.558C752.788 306.858 753.961 307.158 755.136 307.459L754.889 308.428L758.775 309.422L759.023 308.453C761.61 309.114 764.203 309.776 766.801 310.439L766.554 311.408C767.841 311.736 769.13 312.065 770.42 312.393L770.666 311.424C773.246 312.081 775.831 312.738 778.421 313.395L778.176 314.364C779.471 314.693 780.767 315.021 782.065 315.349L782.311 314.38C784.899 315.034 787.492 315.688 790.091 316.341L789.847 317.311C790.405 317.451 790.963 317.591 791.52 317.73C792.253 317.914 792.986 318.098 793.719 318.281L793.962 317.311C796.545 317.958 799.134 318.603 801.727 319.246L801.487 320.217C802.784 320.538 804.082 320.86 805.382 321.18L805.622 320.21C808.213 320.849 810.81 321.487 813.412 322.122L813.175 323.094C814.467 323.409 815.761 323.724 817.055 324.038L817.291 323.066C819.879 323.694 822.473 324.32 825.071 324.942L824.838 325.915C826.138 326.226 827.439 326.537 828.741 326.846L828.973 325.873C831.57 326.491 834.173 327.105 836.781 327.716L836.553 328.69C837.848 328.993 839.145 329.295 840.443 329.597L840.669 328.623C843.263 329.225 845.863 329.824 848.467 330.418L848.245 331.393C849.548 331.69 850.852 331.986 852.158 332.281L852.378 331.306C854.983 331.894 857.593 332.478 860.208 333.057L859.992 334.034C861.291 334.321 862.592 334.608 863.893 334.893L864.107 333.916C866.709 334.486 869.316 335.05 871.928 335.609L871.719 336.587C873.025 336.867 874.333 337.145 875.642 337.422L875.849 336.444C878.463 336.997 881.082 337.544 883.706 338.084L883.505 339.064C884.808 339.332 886.112 339.599 887.418 339.865L887.617 338.885C890.227 339.415 892.842 339.939 895.462 340.457L895.268 341.438C896.579 341.697 897.891 341.954 899.204 342.209L899.395 341.227C902.019 341.738 904.648 342.241 907.282 342.737L907.097 343.72C908.404 343.966 909.713 344.21 911.023 344.453L911.205 343.47C913.824 343.954 916.447 344.431 919.075 344.9L918.899 345.885C920.214 346.12 921.53 346.352 922.848 346.583L923.02 345.598C925.653 346.059 928.291 346.512 930.933 346.957L930.767 347.943C932.081 348.164 933.397 348.383 934.713 348.6L934.876 347.613C937.502 348.045 940.133 348.469 942.769 348.884L942.614 349.872C943.933 350.079 945.254 350.285 946.575 350.488L946.727 349.499C949.368 349.905 952.014 350.302 954.665 350.688L954.52 351.678C955.121 351.766 955.723 351.853 956.324 351.94C956.869 352.249 957.413 352.559 957.956 352.869L958.451 352.001Z" stroke="#D9D9D9" stroke-opacity="0.04" stroke-width="2" stroke-dasharray="4 8"/>
</svg>
