<svg width="1167" height="832" viewBox="0 0 1167 832" fill="none" xmlns="http://www.w3.org/2000/svg">
<path d="M311 248.772C285 337.184 232.052 282.772 147 282.772C61.9482 282.772 0 402.374 0 306C0 209.626 81.9482 0 167 0C252.052 0 330 149.272 311 248.772Z" fill="#2C50BD"/>
<path d="M497.5 678C452.41 715.133 361 693 307 698C249 703.37 164.186 724.241 196 673C227.814 621.759 345.536 552.123 397.562 584.425C449.588 616.727 541.969 632.313 497.5 678Z" fill="#D9D9D9"/>
<path d="M1121.81 476.27C1257.81 623.27 1050 561.955 941.699 627.27C747.699 744.27 845.806 470.644 845.806 374.27C845.806 277.897 1012 171.5 1147.81 281.77C1207.2 330 1017.81 388.27 1121.81 476.27Z" fill="#E80000"/>
</svg>
