<svg version="1.1" xmlns="http://www.w3.org/2000/svg" xmlns:xlink="http://www.w3.org/1999/xlink" width="24px" height="24px" viewBox="0,0,256,256"><g fill="#ffffff" fill-rule="evenodd" stroke="none" stroke-width="1" stroke-linecap="butt" stroke-linejoin="miter" stroke-miterlimit="10" stroke-dasharray="" stroke-dashoffset="0" font-family="none" font-weight="none" font-size="none" text-anchor="none" style="mix-blend-mode: normal"><g transform="scale(10.66667,10.66667)"><path d="M22.75,4c0,-0.464 -0.184,-0.909 -0.513,-1.237c-0.328,-0.329 -0.773,-0.513 -1.237,-0.513c-3.414,0 -14.586,0 -18,0c-0.464,0 -0.909,0.184 -1.237,0.513c-0.329,0.328 -0.513,0.773 -0.513,1.237c0,0.871 0,2.129 0,3c0,0.464 0.184,0.909 0.513,1.237c0.328,0.329 0.773,0.513 1.237,0.513c3.414,0 14.586,0 18,0c0.464,0 0.909,-0.184 1.237,-0.513c0.329,-0.328 0.513,-0.773 0.513,-1.237zM2.25,9.646v9.354c0,0.729 0.29,1.429 0.805,1.945c0.516,0.515 1.216,0.805 1.945,0.805c3.463,0 10.537,0 14,0c0.729,0 1.429,-0.29 1.945,-0.805c0.515,-0.516 0.805,-1.216 0.805,-1.945v-9.354c-0.242,0.068 -0.494,0.104 -0.75,0.104c-3.414,0 -14.586,0 -18,0c-0.256,0 -0.508,-0.036 -0.75,-0.104zM9.5,13.75h5c0.414,0 0.75,-0.336 0.75,-0.75c0,-0.414 -0.336,-0.75 -0.75,-0.75h-5c-0.414,0 -0.75,0.336 -0.75,0.75c0,0.414 0.336,0.75 0.75,0.75z"></path></g></g></svg>