<svg version="1.1" xmlns="http://www.w3.org/2000/svg" xmlns:xlink="http://www.w3.org/1999/xlink" width="24px" height="24px" viewBox="0,0,256,256"><g fill="#ffffff" fill-rule="nonzero" stroke="none" stroke-width="1" stroke-linecap="butt" stroke-linejoin="miter" stroke-miterlimit="10" stroke-dasharray="" stroke-dashoffset="0" font-family="none" font-weight="none" font-size="none" text-anchor="none" style="mix-blend-mode: normal"><g transform="scale(10.66667,10.66667)"><path d="M10,2l-1,1h-5c-0.552,0 -1,0.448 -1,1c0,0.552 0.448,1 1,1h16c0.552,0 1,-0.448 1,-1c0,-0.552 -0.448,-1 -1,-1h-5l-1,-1zM4.3457,7l1.55664,13.23242c0.118,1.008 0.97228,1.76758 1.98828,1.76758h8.2207c1.016,0 1.86933,-0.76058 1.98633,-1.76758l1.55664,-13.23242zM10,9c0.552,0 1,0.448 1,1v9h-1c-0.552,0 -1,-0.448 -1,-1v-8c0,-0.552 0.448,-1 1,-1zM14,9c0.552,0 1,0.448 1,1v8c0,0.552 -0.448,1 -1,1h-1v-9c0,-0.552 0.448,-1 1,-1z"></path></g></g></svg>