<svg version="1.1" xmlns="http://www.w3.org/2000/svg" xmlns:xlink="http://www.w3.org/1999/xlink" width="128px" height="128px" viewBox="0,0,256,256"><g fill="#d9d9d9" fill-rule="nonzero" stroke="none" stroke-width="1" stroke-linecap="butt" stroke-linejoin="miter" stroke-miterlimit="10" stroke-dasharray="" stroke-dashoffset="0" font-family="none" font-weight="none" font-size="none" text-anchor="none" style="mix-blend-mode: normal"><g transform="scale(2,2)"><path d="M19,6c-7.2,0 -13,5.8 -13,13v90c0,7.2 5.8,13 13,13h90c7.2,0 13,-5.8 13,-13v-60c0,-1.7 -1.3,-3 -3,-3c-1.7,0 -3,1.3 -3,3v60c0,3.9 -3.1,7 -7,7h-90c-3.9,0 -7,-3.1 -7,-7v-90c0,-3.9 3.1,-7 7,-7h60c1.7,0 3,-1.3 3,-3c0,-1.7 -1.3,-3 -3,-3zM114.6875,6.44922c-4.3625,0 -8.73789,1.65117 -12.08789,4.95117l-35.59961,35.59961c-0.6,0.6 -0.90039,1.29961 -0.90039,2.09961c0,0.8 0.30039,1.59961 0.90039,2.09961l5.59961,5.60156c1,1 1.3,2.69844 0.5,3.89844c-1.1,1.6 -3.29961,1.8 -4.59961,0.5l-5.59961,-5.59961c-0.7,-0.7 -1.70117,-0.99883 -2.70117,-0.79883c-1,0.2 -1.79922,0.89883 -2.19922,1.79883l-7.09961,17c-0.5,1.1 -0.20039,2.40078 0.59961,3.30078c0.9,0.9 2.20078,1.09961 3.30078,0.59961l16.89844,-7.09961h0.10156c0.2,-0.1 0.3,-0.20078 0.5,-0.30078c0.1,0 0.09922,-0.09961 0.19922,-0.09961l0.19922,-0.19922l8.5,-8.5l45.60156,-45.5c0.6,-0.6 0.89844,-1.30156 0.89844,-2.10156c-0.1,-1 -0.4,-1.69883 -1,-2.29883c-3.3,-3.3 -7.64922,-4.95117 -12.01172,-4.95117z"></path></g></g></svg>