<svg version="1.1" xmlns="http://www.w3.org/2000/svg" xmlns:xlink="http://www.w3.org/1999/xlink" width="24px" height="24px" viewBox="0,0,256,256"><g fill="#d9d9d9" fill-rule="nonzero" stroke="none" stroke-width="1" stroke-linecap="butt" stroke-linejoin="miter" stroke-miterlimit="10" stroke-dasharray="" stroke-dashoffset="0" font-family="none" font-weight="none" font-size="none" text-anchor="none" style="mix-blend-mode: normal"><g transform="scale(10.66667,10.66667)"><path d="M6.5,2c-1.36906,0 -2.5,1.13094 -2.5,2.5v15c0,1.36906 1.13094,2.5 2.5,2.5h11c1.36906,0 2.5,-1.13094 2.5,-2.5v-0.5c0.0051,-0.36064 -0.18438,-0.69608 -0.49587,-0.87789c-0.3115,-0.18181 -0.69676,-0.18181 -1.00825,0c-0.3115,0.18181 -0.50097,0.51725 -0.49587,0.87789v0.5c0,0.28694 -0.21306,0.5 -0.5,0.5h-11c-0.28694,0 -0.5,-0.21306 -0.5,-0.5v-15c0,-0.28694 0.21306,-0.5 0.5,-0.5h11c0.28694,0 0.5,0.21306 0.5,0.5v0.5c-0.0051,0.36064 0.18438,0.69608 0.49587,0.87789c0.3115,0.18181 0.69676,0.18181 1.00825,0c0.3115,-0.18181 0.50097,-0.51725 0.49587,-0.87789v-0.5c0,-1.36906 -1.13094,-2.5 -2.5,-2.5zM19.99023,7.99023c-0.40692,0.00011 -0.77321,0.24676 -0.92633,0.62377c-0.15312,0.37701 -0.06255,0.80921 0.22907,1.09303l1.29297,1.29297h-7.58594c-0.36064,-0.0051 -0.69608,0.18438 -0.87789,0.49587c-0.18181,0.3115 -0.18181,0.69676 0,1.00825c0.18181,0.3115 0.51725,0.50097 0.87789,0.49587h7.58594l-1.29297,1.29297c-0.26124,0.25082 -0.36648,0.62327 -0.27512,0.97371c0.09136,0.35044 0.36503,0.62411 0.71547,0.71547c0.35044,0.09136 0.72289,-0.01388 0.97371,-0.27512l3,-3c0.39037,-0.39053 0.39037,-1.02353 0,-1.41406l-3,-3c-0.18827,-0.19353 -0.4468,-0.30272 -0.7168,-0.30273z"></path></g></g></svg>