<svg version="1.1" xmlns="http://www.w3.org/2000/svg" xmlns:xlink="http://www.w3.org/1999/xlink" width="24px" height="24px" viewBox="0,0,256,256"><g fill="#ffffff" fill-rule="nonzero" stroke="none" stroke-width="1" stroke-linecap="butt" stroke-linejoin="miter" stroke-miterlimit="10" stroke-dasharray="" stroke-dashoffset="0" font-family="none" font-weight="none" font-size="none" text-anchor="none" style="mix-blend-mode: normal"><g transform="scale(10.66667,10.66667)"><path d="M4,2c-0.552,0 -1,0.448 -1,1v4c0,0.552 0.448,1 1,1h2v10c0,1.09306 0.90694,2 2,2h5v0.5c0,0.81706 0.68294,1.5 1.5,1.5h5c0.81706,0 1.5,-0.68294 1.5,-1.5v-3c0,-0.81706 -0.68294,-1.5 -1.5,-1.5h-5c-0.81706,0 -1.5,0.68294 -1.5,1.5v0.5h-5v-6h5v0.5c0,0.81706 0.68294,1.5 1.5,1.5h5c0.81706,0 1.5,-0.68294 1.5,-1.5v-3c0,-0.81706 -0.68294,-1.5 -1.5,-1.5h-5c-0.81706,0 -1.5,0.68294 -1.5,1.5v0.5h-5v-2h2c0.552,0 1,-0.448 1,-1v-4c0,-0.552 -0.448,-1 -1,-1zM15,10h4v2h-4zM15,18h4v2h-4z"></path></g></g></svg>