<svg version="1.1" xmlns="http://www.w3.org/2000/svg" xmlns:xlink="http://www.w3.org/1999/xlink" width="26px" height="26px" viewBox="0,0,256,256"><g fill="#ffffff" fill-rule="nonzero" stroke="none" stroke-width="1" stroke-linecap="butt" stroke-linejoin="miter" stroke-miterlimit="10" stroke-dasharray="" stroke-dashoffset="0" font-family="none" font-weight="none" font-size="none" text-anchor="none" style="mix-blend-mode: normal"><g transform="scale(9.84615,9.84615)"><path d="M12,3c-0.60156,0 -1,0.39844 -1,1v7h-7c-0.60156,0 -1,0.39844 -1,1v2c0,0.60156 0.39844,1 1,1h7v7c0,0.60156 0.39844,1 1,1h2c0.60156,0 1,-0.39844 1,-1v-7h7c0.60156,0 1,-0.39844 1,-1v-2c0,-0.60156 -0.39844,-1 -1,-1h-7v-7c0,-0.60156 -0.39844,-1 -1,-1z"></path></g></g></svg>