<svg version="1.1" xmlns="http://www.w3.org/2000/svg" xmlns:xlink="http://www.w3.org/1999/xlink" width="32px" height="32px" viewBox="0,0,256,256"><g fill="#ffffff" fill-rule="nonzero" stroke="none" stroke-width="1" stroke-linecap="butt" stroke-linejoin="miter" stroke-miterlimit="10" stroke-dasharray="" stroke-dashoffset="0" font-family="none" font-weight="none" font-size="none" text-anchor="none" style="mix-blend-mode: normal"><g transform="scale(8,8)"><path d="M30.707,29.293l-7.6989,-7.699c4.36201,-5.12103 3.90312,-12.77237 -1.03967,-17.33535c-4.9428,-4.56298 -12.60636,-4.40994 -17.36304,0.34674c-4.75668,4.75668 -4.90972,12.42025 -0.34674,17.36304c4.56298,4.9428 12.21433,5.40168 17.33535,1.03967l7.699,7.6989c0.39238,0.37897 1.01608,0.37355 1.40182,-0.01218c0.38573,-0.38573 0.39115,-1.00944 0.01218,-1.40182zM3,13.5c0,-5.79899 4.70101,-10.5 10.5,-10.5c5.79899,0 10.5,4.70101 10.5,10.5c0,5.79899 -4.70101,10.5 -10.5,10.5c-5.79629,-0.0065 -10.4935,-4.70371 -10.5,-10.5z"></path></g></g></svg>