<svg version="1.1" xmlns="http://www.w3.org/2000/svg" xmlns:xlink="http://www.w3.org/1999/xlink" width="26px" height="26px" viewBox="0,0,256,256"><g transform="translate(25.6,25.6) scale(0.8,0.8)"><g fill="#ffffff" fill-rule="nonzero" stroke="none" stroke-width="1" stroke-linecap="butt" stroke-linejoin="miter" stroke-miterlimit="10" stroke-dasharray="" stroke-dashoffset="0" font-family="none" font-weight="none" font-size="none" text-anchor="none" style="mix-blend-mode: normal"><g transform="scale(9.84615,9.84615)"><path d="M3,2c-1.65625,0 -3,1.34375 -3,3v16c0,1.65625 1.34375,3 3,3h20c1.65625,0 3,-1.34375 3,-3v-16c0,-1.65625 -1.34375,-3 -3,-3zM2,7h22v14c0,0.55078 -0.44922,1 -1,1h-20c-0.55078,0 -1,-0.44922 -1,-1zM4.40625,10l3.5,3.5l-3.5,3.5h2.53125l3.5,-3.5l-3.5,-3.5zM13,15c-0.55078,0 -1,0.44922 -1,1c0,0.55078 0.44922,1 1,1h5c0.55078,0 1,-0.44922 1,-1c0,-0.55078 -0.44922,-1 -1,-1z"></path></g></g></g></svg>