<svg version="1.1" xmlns="http://www.w3.org/2000/svg" xmlns:xlink="http://www.w3.org/1999/xlink" width="16px" height="16px" viewBox="0,0,256,256"><g fill="#d9d9d9" fill-rule="evenodd" stroke="none" stroke-width="1" stroke-linecap="butt" stroke-linejoin="round" stroke-miterlimit="2" stroke-dasharray="" stroke-dashoffset="0" font-family="none" font-weight="none" font-size="none" text-anchor="none" style="mix-blend-mode: normal"><g transform="scale(16,16)"><path d="M2.097,10.99c0.961,1.988 2.948,3.406 5.307,3.528c3.445,0.179 6.387,-2.473 6.565,-5.918c0.179,-3.444 -2.473,-6.386 -5.918,-6.565c-1.902,-0.098 -3.65,0.665 -4.865,1.949c-0.285,0.301 -0.271,0.776 0.029,1.061c0.301,0.284 0.776,0.271 1.061,-0.03c0.923,-0.976 2.252,-1.557 3.698,-1.482c2.618,0.136 4.633,2.372 4.497,4.99c-0.136,2.618 -2.371,4.633 -4.989,4.497c-1.794,-0.093 -3.304,-1.171 -4.034,-2.682c-0.18,-0.373 -0.629,-0.53 -1.002,-0.349c-0.373,0.18 -0.529,0.628 -0.349,1.001z"></path><path d="M2.786,2.184l-0.146,2.825c-0.021,0.414 0.296,0.766 0.71,0.788l2.825,0.146c0.413,0.022 0.766,-0.297 0.788,-0.71c0.021,-0.413 -0.297,-0.766 -0.711,-0.788l-2.075,-0.107l0.107,-2.076c0.022,-0.413 -0.296,-0.766 -0.71,-0.788c-0.413,-0.021 -0.766,0.297 -0.788,0.71z"></path></g></g></svg>