<svg version="1.1" xmlns="http://www.w3.org/2000/svg" xmlns:xlink="http://www.w3.org/1999/xlink" width="26px" height="26px" viewBox="0,0,256,256"><g fill="#d9d9d9" fill-rule="nonzero" stroke="none" stroke-width="1" stroke-linecap="butt" stroke-linejoin="miter" stroke-miterlimit="10" stroke-dasharray="" stroke-dashoffset="0" font-family="none" font-weight="none" font-size="none" text-anchor="none" style="mix-blend-mode: normal"><g transform="scale(9.84615,9.84615)"><path d="M2.3125,0l-2.3125,2.3125l5.21875,3.65625l0.75,-0.75zM19.625,0.15625c-1.62891,0.07813 -3.19531,0.78906 -4.40625,2l-4.6875,4.6875l2.3125,2.3125l4.6875,-4.6875c0.63672,-0.63672 1.43359,-1.02734 2.25,-1.0625c0.55469,-0.02734 1.33984,0.08984 2.03125,0.78125c0.64453,0.64453 0.78125,1.39453 0.78125,1.90625c0,0.85547 -0.39062,1.70703 -1.0625,2.375l-4.6875,4.6875l2.3125,2.3125l4.6875,-4.6875c1.27344,-1.27344 2,-2.97656 2,-4.6875c0,-1.58984 -0.60156,-3.10156 -1.71875,-4.21875c-1.19531,-1.19141 -2.80078,-1.79687 -4.5,-1.71875zM6.84375,10.53125l-4.6875,4.6875c-1.27344,1.27344 -2,2.97656 -2,4.6875c0,1.58984 0.60156,3.10156 1.71875,4.21875c1.19531,1.19141 2.80078,1.79688 4.5,1.71875c1.62891,-0.07812 3.19531,-0.78906 4.40625,-2l4.6875,-4.6875l-2.3125,-2.3125l-4.6875,4.6875c-0.63672,0.63672 -1.43359,1.02734 -2.25,1.0625c-0.55469,0.02734 -1.33984,-0.08984 -2.03125,-0.78125c-0.64453,-0.64453 -0.78125,-1.39453 -0.78125,-1.90625c0,-0.85547 0.39063,-1.70703 1.0625,-2.375l4.6875,-4.6875zM20.78125,20.03125l-0.75,0.75l3.65625,5.21875l2.3125,-2.3125z"></path></g></g></svg>