<svg version="1.1" xmlns="http://www.w3.org/2000/svg" xmlns:xlink="http://www.w3.org/1999/xlink" width="64px" height="64px" viewBox="0,0,256,256"><g fill="#ffffff" fill-rule="nonzero" stroke="none" stroke-width="1" stroke-linecap="butt" stroke-linejoin="miter" stroke-miterlimit="10" stroke-dasharray="" stroke-dashoffset="0" font-family="none" font-weight="none" font-size="none" text-anchor="none" style="mix-blend-mode: normal"><g transform="scale(4,4)"><path d="M17,12c-3.309,0 -6,2.691 -6,6v28c0,3.309 2.691,6 6,6h30c3.309,0 6,-2.691 6,-6v-28c0,-3.309 -2.691,-6 -6,-6zM17,23h30c1.103,0 2,0.897 2,2v21c0,1.103 -0.897,2 -2,2h-30c-1.103,0 -2,-0.897 -2,-2v-21c0,-1.103 0.897,-2 2,-2zM37,34c-1.105,0 -2,0.895 -2,2v5c0,1.105 0.895,2 2,2h5c1.105,0 2,-0.895 2,-2v-5c0,-1.105 -0.895,-2 -2,-2z"></path></g></g></svg>