<svg version="1.1" xmlns="http://www.w3.org/2000/svg" xmlns:xlink="http://www.w3.org/1999/xlink" width="16px" height="16px" viewBox="0,0,256,256"><g fill="#d9d9d9" fill-rule="evenodd" stroke="none" stroke-width="1" stroke-linecap="butt" stroke-linejoin="round" stroke-miterlimit="2" stroke-dasharray="" stroke-dashoffset="0" font-family="none" font-weight="none" font-size="none" text-anchor="none" style="mix-blend-mode: normal"><g transform="scale(16,16)"><path d="M12.03,4.97l-3.5,-3.5c-0.293,-0.293 -0.767,-0.293 -1.06,0l-3.5,3.5c-0.293,0.292 -0.293,0.768 0,1.06c0.292,0.293 0.768,0.293 1.06,0l2.97,-2.969l2.97,2.969c0.292,0.293 0.768,0.293 1.06,0c0.293,-0.292 0.293,-0.768 0,-1.06z"></path><path d="M10.97,9.97l-2.97,2.969l-2.97,-2.969c-0.292,-0.293 -0.768,-0.293 -1.06,0c-0.293,0.292 -0.293,0.768 0,1.06l3.5,3.5c0.293,0.293 0.767,0.293 1.06,0l3.5,-3.5c0.293,-0.292 0.293,-0.768 0,-1.06c-0.292,-0.293 -0.768,-0.293 -1.06,0z"></path></g></g></svg>