<svg version="1.1" xmlns="http://www.w3.org/2000/svg" xmlns:xlink="http://www.w3.org/1999/xlink" width="24px" height="24px" viewBox="0,0,256,256"><g transform=""><g fill="#ffffff" fill-rule="evenodd" stroke="none" stroke-width="1" stroke-linecap="butt" stroke-linejoin="miter" stroke-miterlimit="10" stroke-dasharray="" stroke-dashoffset="0" font-family="none" font-weight="none" font-size="none" text-anchor="none" style="mix-blend-mode: normal"><g transform="scale(10.66667,10.66667)"><path d="M9.2207,1.25c-0.753,0 -1.42216,0.48227 -1.66016,1.19727l-0.11914,0.35352c-0.127,0.382 -0.19141,0.78255 -0.19141,1.18555v0.01367c0,0.464 0.18467,0.90833 0.51367,1.23633c0.328,0.329 0.77233,0.51367 1.23633,0.51367h6c0.464,0 0.90833,-0.18467 1.23633,-0.51367c0.329,-0.328 0.51367,-0.77233 0.51367,-1.23633v-0.01367c0,-0.403 -0.06441,-0.80355 -0.19141,-1.18555l-0.11914,-0.35352c-0.238,-0.715 -0.90716,-1.19727 -1.66016,-1.19727zM6,2.75c-1.519,0 -2.75,1.231 -2.75,2.75v14.5c0,1.519 1.231,2.75 2.75,2.75h12c1.519,0 2.75,-1.231 2.75,-2.75v-14.5c0,-1.519 -1.231,-2.75 -2.75,-2.75h-0.45117l0.20117,1.23633v0.01367v0.00977c-0.002,0.726 -0.29169,1.42155 -0.80469,1.93555c-0.516,0.515 -1.21631,0.80469 -1.94531,0.80469h-6c-0.729,0 -1.42931,-0.28969 -1.94531,-0.80469c-0.515,-0.516 -0.80469,-1.21631 -0.80469,-1.94531v-0.01367c0,-0.418 0.05506,-0.83333 0.16406,-1.23633z"></path></g></g></g></svg>