<svg version="1.1" xmlns="http://www.w3.org/2000/svg" xmlns:xlink="http://www.w3.org/1999/xlink" width="128px" height="128px" viewBox="0,0,256,256"><g fill="#ffffff" fill-rule="nonzero" stroke="none" stroke-width="1" stroke-linecap="butt" stroke-linejoin="miter" stroke-miterlimit="10" stroke-dasharray="" stroke-dashoffset="0" font-family="none" font-weight="none" font-size="none" text-anchor="none" style="mix-blend-mode: normal"><g transform="scale(2,2)"><path d="M120.5,67.19l-23.5,-13.56v-27.18c0,-4.63 -2.49,-8.94 -6.5,-11.26l-20,-11.55c-4.01,-2.31 -8.99,-2.31 -13,0l-20,11.55c-4.01,2.31 -6.5,6.63 -6.5,11.26v27.17l-23.5,13.57c-4.01,2.32 -6.5,6.63 -6.5,11.26v23.09c0,4.63 2.49,8.94 6.5,11.26l20,11.55c2,1.16 4.25,1.74 6.5,1.74c2.25,0 4.5,-0.58 6.5,-1.74l23.5,-13.57l23.5,13.57c2,1.16 4.25,1.74 6.5,1.74c2.25,0 4.5,-0.58 6.5,-1.74l20,-11.55c4.01,-2.31 6.5,-6.63 6.5,-11.26v-23.09c0,-4.63 -2.49,-8.94 -6.5,-11.26zM90.96,25.91c0.01,0.18 0.04,0.36 0.04,0.54v27.14l-24,13.85v-27.7zM31,119.4c-0.17,-0.08 -0.34,-0.15 -0.5,-0.25l-20,-11.55c-2.16,-1.25 -3.5,-3.57 -3.5,-6.06v-23.09c0,-0.18 0.02,-0.36 0.04,-0.54l23.96,13.83zM10.03,72.71c0.16,-0.11 0.31,-0.22 0.47,-0.32l23.5,-13.57l24.01,13.86l-24.01,13.87zM61,105.59l-23.5,13.57c-0.16,0.09 -0.33,0.17 -0.5,0.25v-27.67l24,-13.86zM61,67.44l-24,-13.85v-27.14c0,-0.18 0.02,-0.36 0.04,-0.54l23.96,13.83zM40.03,20.71c0.16,-0.11 0.31,-0.22 0.47,-0.32l20,-11.55c2.16,-1.25 4.84,-1.25 7,0l20,11.55c0.17,0.1 0.32,0.21 0.47,0.32l-23.97,13.84zM91,119.4c-0.17,-0.08 -0.34,-0.15 -0.5,-0.25l-23.5,-13.56v-27.7l24,13.86zM69.99,72.69l24.01,-13.87l23.5,13.57c0.17,0.1 0.32,0.21 0.47,0.32l-23.97,13.84zM121,101.55c0,2.49 -1.34,4.82 -3.5,6.06l-20,11.55c-0.16,0.09 -0.33,0.17 -0.5,0.25v-27.67l23.96,-13.84c0.01,0.18 0.04,0.36 0.04,0.54z"></path></g></g></svg>