<svg version="1.1" xmlns="http://www.w3.org/2000/svg" xmlns:xlink="http://www.w3.org/1999/xlink" width="50px" height="50px" viewBox="0,0,256,256"><g fill="#ffffff" fill-rule="nonzero" stroke="none" stroke-width="1" stroke-linecap="butt" stroke-linejoin="miter" stroke-miterlimit="10" stroke-dasharray="" stroke-dashoffset="0" font-family="none" font-weight="none" font-size="none" text-anchor="none" style="mix-blend-mode: normal"><g transform="scale(5.12,5.12)"><path d="M9,19c-3.30859,0 -6,2.69141 -6,6c0,3.30859 2.69141,6 6,6c3.30859,0 6,-2.69141 6,-6c0,-3.30859 -2.69141,-6 -6,-6zM25,19c-3.30859,0 -6,2.69141 -6,6c0,3.30859 2.69141,6 6,6c3.30859,0 6,-2.69141 6,-6c0,-3.30859 -2.69141,-6 -6,-6zM41,19c-3.30859,0 -6,2.69141 -6,6c0,3.30859 2.69141,6 6,6c3.30859,0 6,-2.69141 6,-6c0,-3.30859 -2.69141,-6 -6,-6z"></path></g></g></svg>