<svg version="1.1" xmlns="http://www.w3.org/2000/svg" xmlns:xlink="http://www.w3.org/1999/xlink" width="64px" height="64px" viewBox="0,0,256,256"><g fill="#d9d9d9" fill-rule="nonzero" stroke="none" stroke-width="1" stroke-linecap="butt" stroke-linejoin="miter" stroke-miterlimit="10" stroke-dasharray="" stroke-dashoffset="0" font-family="none" font-weight="none" font-size="none" text-anchor="none" style="mix-blend-mode: normal"><g transform="scale(4,4)"><path d="M42.395,41.606l16.605,-16.605l-8,-8.001l-4,2l2,-3.999l-3.847,-3.847l-6.153,3.846l3.846,-6.153l-3.846,-3.846l-16.981,16.981zM19.981,24.02l-4.258,4.258c-0.952,0.952 -0.952,2.495 0,3.446l3.939,3.939c1.297,1.297 1.137,3.444 -0.338,4.534l-12.1,8.915c-2.694,1.992 -2.987,5.913 -0.618,8.283v0c2.369,2.369 6.291,2.077 8.283,-0.618l8.916,-12.1c1.09,-1.475 3.237,-1.635 4.534,-0.338l3.939,3.939c0.952,0.952 2.495,0.952 3.446,0l3.882,-3.882zM11,55.001c-1.104,0 -2,-0.895 -2,-2c0,-1.105 0.896,-2 2,-2c1.104,0 2,0.895 2,2c0,1.104 -0.896,2 -2,2z"></path></g></g></svg>